<svg width="17" height="16" viewBox="0 0 17 16" fill="none" xmlns="http://www.w3.org/2000/svg">
<g clip-path="url(#clip0_223_182)">
<path d="M16.7261 8C16.7261 3.58172 13.1444 0 8.72607 0C4.3078 0 0.726074 3.58172 0.726074 8C0.726074 12.4183 4.3078 16 8.72607 16C13.1444 16 16.7261 12.4183 16.7261 8Z" fill="url(#paint0_linear_223_182)"/>
<path d="M5.05672 8.34188L10.5098 2.92554C10.6119 2.82468 10.7756 2.94795 10.7071 3.07371L8.67757 6.79418C8.66736 6.8131 8.66222 6.83434 8.66265 6.85584C8.66309 6.87734 8.66908 6.89836 8.68005 6.91685C8.69102 6.93534 8.7066 6.95068 8.72525 6.96137C8.74391 6.97206 8.76502 6.97773 8.78652 6.97784H12.2941C12.3191 6.97779 12.3436 6.98531 12.3644 6.99942C12.3851 7.01353 12.4011 7.03357 12.4102 7.05691C12.4194 7.08026 12.4213 7.10582 12.4157 7.13026C12.41 7.1547 12.3972 7.17687 12.3787 7.19387L6.23275 12.9302C6.12193 13.0329 5.9582 12.8879 6.0466 12.7659L8.95648 8.75216C8.97006 8.73357 8.97823 8.71158 8.98007 8.68864C8.9819 8.66569 8.97735 8.64268 8.9669 8.62217C8.95645 8.60166 8.94052 8.58445 8.92087 8.57244C8.90123 8.56044 8.87865 8.55412 8.85563 8.55418H5.1445C5.11995 8.55408 5.09598 8.54672 5.0756 8.53303C5.05522 8.51934 5.03934 8.49993 5.02996 8.47724C5.02058 8.45456 5.01811 8.4296 5.02287 8.40552C5.02763 8.38143 5.03941 8.35929 5.05672 8.34188Z" fill="white"/>
</g>
<defs>
<linearGradient id="paint0_linear_223_182" x1="8.72607" y1="0" x2="8.72607" y2="16" gradientUnits="userSpaceOnUse">
<stop stop-color="#7BCBD4"/>
<stop offset="1" stop-color="#29C6B7"/>
</linearGradient>
<clipPath id="clip0_223_182">
<rect width="16" height="16" fill="white" transform="translate(0.726074)"/>
</clipPath>
</defs>
</svg>
