<svg width="15" height="16" viewBox="0 0 15 16" fill="none" xmlns="http://www.w3.org/2000/svg">
<g id="Logo" clip-path="url(#clip0_223_222)">
<path id="Vector" d="M1.56264 15.1195C1.28878 15.1195 1.20916 14.96 1.20916 14.7211C1.20916 14.6415 1.21916 14.5517 1.23148 14.457C1.29147 14.0439 1.43792 13.8075 1.79141 13.8075C2.03048 13.8075 2.14705 13.9144 2.14705 14.1086V14.2033H2.38423C2.38686 14.2033 2.38686 14.1161 2.38686 14.0963C2.38686 13.8125 2.21504 13.5434 1.79177 13.5434C1.21664 13.5434 0.980139 13.8558 0.892992 14.4684C0.88052 14.5506 0.873047 14.6273 0.873047 14.7092C0.873047 15.0702 1.01508 15.3985 1.52291 15.3985C1.90876 15.3985 2.13794 15.2104 2.27229 14.9789L2.04569 14.8263C1.89887 15.0579 1.73941 15.1195 1.56264 15.1195ZM3.11877 13.9792C2.65809 13.9792 2.45906 14.2156 2.39186 14.6861C2.38397 14.7405 2.37975 14.7954 2.37923 14.8505C2.37923 15.1541 2.52116 15.3958 2.91442 15.3958C3.3751 15.3958 3.57681 15.1492 3.64402 14.6861C3.65149 14.6264 3.65649 14.5716 3.65649 14.5169C3.65659 14.2082 3.50977 13.9792 3.11877 13.9792ZM3.31048 14.6862C3.26064 15.0274 3.15371 15.132 2.95189 15.132C2.79018 15.132 2.71055 15.0647 2.71055 14.863C2.71055 14.8132 2.71561 14.7535 2.7255 14.6862C2.77534 14.3477 2.8749 14.2431 3.07903 14.2431C3.24338 14.2431 3.32542 14.3103 3.32542 14.5144C3.32542 14.5642 3.32037 14.6215 3.31048 14.6862ZM4.8145 13.5681L4.73741 14.0252C4.73246 14.0649 4.73499 14.0517 4.75004 14.0891C4.67783 14.0344 4.54827 13.9981 4.46112 13.9981C4.04781 13.9981 3.81636 14.1852 3.74174 14.7081C3.73303 14.7632 3.72886 14.8191 3.72927 14.8749C3.72927 15.256 3.95329 15.398 4.25447 15.398C4.38161 15.398 4.50601 15.4007 4.603 15.3186L4.62779 15.4735H4.86686L5.14567 13.5681H4.8145ZM4.578 15.0596C4.46607 15.1267 4.35661 15.1418 4.28941 15.1418C4.10764 15.1418 4.05786 15.0472 4.05786 14.8954C4.05786 14.8381 4.06533 14.771 4.07538 14.6986C4.13253 14.3028 4.25957 14.233 4.42392 14.233C4.53085 14.233 4.61295 14.2505 4.69031 14.293L4.578 15.0596ZM5.87274 13.9792C5.41701 13.9792 5.20308 14.1956 5.13078 14.6861C5.1232 14.7459 5.1182 14.8032 5.1182 14.8579C5.1182 15.194 5.29007 15.3958 5.66834 15.3958C5.96215 15.3958 6.18144 15.2737 6.29837 15.0496L6.04687 14.9475C5.97478 15.057 5.87768 15.1317 5.70586 15.1317C5.52168 15.1317 5.44695 15.0821 5.44695 14.9178C5.44695 14.8853 5.44947 14.8383 5.45447 14.8383H6.3531C6.36573 14.7112 6.38046 14.6214 6.38046 14.547C6.38046 14.2982 6.28595 13.9791 5.87274 13.9791V13.9792ZM6.04445 14.5843H5.49673C5.55162 14.4573 5.64356 14.2607 5.83285 14.2607C5.97967 14.2607 6.05198 14.3465 6.05198 14.4934C6.05182 14.5183 6.04956 14.5843 6.04445 14.5843ZM7.33855 13.9492L7.36839 13.6952H6.66622L6.63648 13.9492H6.82067L6.62164 15.2194H6.43719L6.40751 15.4735H7.10953L7.13953 15.2194H6.95518L7.15426 13.9492H7.33855ZM8.76522 14.3303L8.85494 14.0762H8.61345L8.43931 14.1122C8.34217 14.0501 8.21018 14.0035 8.08583 14.0035C7.72966 14.0035 7.42607 14.1754 7.42607 14.5664C7.42607 14.6761 7.46585 14.7646 7.51306 14.8244C7.43854 14.8641 7.37376 14.9307 7.37376 15.0205C7.37376 15.0603 7.3886 15.101 7.4186 15.1383C7.26909 15.228 7.17726 15.3768 7.17726 15.551C7.17726 15.8872 7.52821 15.959 7.79708 15.959C8.13561 15.959 8.53904 15.8816 8.53904 15.4509C8.53904 15.304 8.44694 15.1893 8.18055 15.1395L7.70009 15.0497C7.64536 15.0397 7.63289 15.0223 7.63289 14.9974C7.63289 14.96 7.65552 14.9402 7.69267 14.9402L7.72509 14.9452C7.78981 14.9601 7.86454 14.9677 7.94164 14.9677C8.2878 14.9677 8.59645 14.8182 8.59645 14.4298C8.59645 14.375 8.58656 14.3379 8.56167 14.2781C8.60392 14.2981 8.65881 14.3304 8.68102 14.3304H8.76522V14.3303ZM8.08072 15.3608C8.17524 15.3783 8.20755 15.4131 8.20755 15.4754C8.20755 15.6771 7.99095 15.702 7.83418 15.702C7.59515 15.702 7.50559 15.6448 7.50559 15.5177C7.50559 15.4056 7.53785 15.3534 7.61268 15.2737L8.08072 15.3608ZM7.97847 14.7087C7.83407 14.7087 7.7544 14.6565 7.7544 14.5319C7.7544 14.3477 7.86149 14.2406 8.0482 14.2406C8.19761 14.2406 8.26986 14.3028 8.26986 14.4247C8.26986 14.609 8.16519 14.7087 7.97847 14.7087ZM9.64969 13.9792C9.51023 13.9792 9.38588 14.0476 9.23142 14.1695L9.20906 14.0762H8.93509L8.74343 15.4734H9.07455L9.219 14.4139C9.31615 14.3542 9.43556 14.2674 9.53765 14.2674C9.66205 14.2674 9.707 14.3275 9.707 14.4419C9.707 14.4693 9.70436 14.5506 9.69936 14.5804L9.57754 15.4734H9.90871L10.0305 14.5731C10.0356 14.531 10.0405 14.4616 10.0405 14.4219C10.0407 14.1851 9.92849 13.9792 9.64969 13.9792ZM10.6696 15.1234L10.6721 15.0892L10.8164 14.0762H10.2661L10.2315 14.3303H10.4728C10.4528 14.3303 10.4404 14.3525 10.438 14.3726L10.3384 15.0472C10.3334 15.0797 10.331 15.1473 10.331 15.1745C10.331 15.3487 10.4255 15.4735 10.6196 15.4735H10.789L10.8263 15.2194H10.7193C10.6819 15.2194 10.6696 15.1533 10.6696 15.1234ZM10.8836 13.5681H10.5599C10.54 13.5681 10.54 13.4948 10.5376 13.5197L10.4926 13.8777C10.4901 13.9002 10.4901 13.9493 10.51 13.9493H10.8338C10.8537 13.9493 10.8537 13.8622 10.8562 13.8396L10.9011 13.5633C10.9036 13.5384 10.9036 13.5681 10.8836 13.5681ZM11.5588 15.1319C11.4768 15.1319 11.4369 15.097 11.4369 15.0224L11.4394 15.0173L11.544 14.3303H11.9223L12.0368 14.0762H11.5788L11.6559 13.5172L11.3075 13.6286L11.2451 14.0762H11.0435L11.0087 14.3303H11.2427C11.2203 14.4573 11.1979 14.3749 11.1954 14.3999L11.1058 15.0023C11.1008 15.0298 11.1008 15.0497 11.1008 15.0745C11.1008 15.311 11.2751 15.3995 11.4844 15.3995C11.6785 15.3995 11.8354 15.3429 11.9575 15.2406L11.803 15.0506C11.7256 15.0978 11.6734 15.1319 11.5588 15.1319ZM12.7738 13.9792C12.3182 13.9792 12.1041 14.1956 12.0319 14.6861C12.0244 14.7459 12.0194 14.8032 12.0194 14.8579C12.0194 15.194 12.1912 15.3958 12.5695 15.3958C12.8633 15.3958 13.0826 15.2737 13.1995 15.0496L12.9481 14.9475C12.876 15.057 12.7788 15.1317 12.6069 15.1317C12.4228 15.1317 12.348 15.0821 12.348 14.9178C12.348 14.8853 12.3507 14.8383 12.3557 14.8383H13.2543C13.2668 14.7112 13.2817 14.6214 13.2817 14.547C13.2817 14.2982 13.1871 13.9791 12.7738 13.9791V13.9792ZM12.9456 14.5843H12.3979C12.4527 14.4573 12.5446 14.2607 12.734 14.2607C12.8809 14.2607 12.9532 14.3465 12.9532 14.4934C12.953 14.5183 12.9506 14.5843 12.9456 14.5843ZM14.198 13.9791C14.0784 13.9791 13.9664 14.0477 13.8543 14.1545L13.8344 14.0762H13.5607L13.3689 15.4734H13.7025L13.8494 14.3915C13.9366 14.3393 14.0361 14.2947 14.1308 14.2947C14.1906 14.2947 14.2477 14.2852 14.3025 14.2926L14.345 14.004C14.295 13.994 14.2452 13.9792 14.198 13.9792V13.9791ZM5.74296 12.5674C4.98937 12.2416 4.2842 11.4137 4.28252 10.5666C4.28046 9.64306 4.86576 8.85894 5.59372 8.34364C5.5062 8.67428 5.45847 8.97672 5.67529 9.27247C5.87684 9.54744 6.22985 9.68105 6.56318 9.60854C7.34203 9.43803 7.37776 8.58182 6.91603 8.08299C6.45951 7.589 6.01788 7.03102 6.19165 6.31463C6.27863 5.95552 6.49913 5.61914 6.77847 5.3787C6.56376 5.94294 7.17389 6.4994 7.57589 6.77657C8.27323 7.25746 9.03834 7.62089 9.67952 8.18461C10.354 8.77706 10.852 9.57812 10.7514 10.5072C10.6425 11.5142 9.84224 12.2146 8.94467 12.5682C10.8414 12.1496 12.8012 10.6775 12.8413 8.57398C12.8746 6.84341 11.6874 5.51157 10.2168 4.74909L10.14 4.70715C10.1804 4.80508 10.1936 4.88839 10.192 4.96296C10.2052 4.90797 10.2141 4.85145 10.2167 4.79314C10.2163 4.86241 10.2073 4.93136 10.1897 4.99838L10.192 4.96296C10.1702 5.05484 10.1334 5.1425 10.0832 5.22245L10.1047 5.19924C9.81135 5.68587 9.01708 5.79154 8.62471 5.28765C7.99395 4.47712 8.63792 3.60323 8.72801 2.74492C8.84079 1.66921 8.16619 0.624922 7.32977 0C7.79045 0.745223 7.18352 1.73115 6.69795 2.28235C6.22711 2.81665 5.6545 3.26275 5.13472 3.74822C4.57637 4.26962 4.0396 4.81887 3.58066 5.43085C2.66277 6.65575 2.10084 8.19629 2.51379 9.72442C2.92647 11.2515 4.24926 12.2236 5.74302 12.5673L5.74296 12.5674Z" fill="#EE4323"/>
</g>
<defs>
<clipPath id="clip0_223_222">
<rect width="13.472" height="16" fill="white" transform="translate(0.873047)"/>
</clipPath>
</defs>
</svg>
