<svg width="17" height="16" viewBox="0 0 17 16" fill="none" xmlns="http://www.w3.org/2000/svg">
<g id="Logo" clip-path="url(#clip0_223_218)">
<path id="Vector" d="M16.126 12.3976C15.544 12.5456 15.184 12.4041 14.861 11.9191L12.564 8.74107L12.232 8.30106L9.54948 11.9296C9.24298 12.3661 8.92148 12.5561 8.34948 12.4016L11.7845 7.79057L8.58648 3.62557C9.13648 3.51857 9.51648 3.57307 9.85398 4.06557L12.2365 7.28307L14.6365 4.08307C14.944 3.64657 15.2745 3.48057 15.8265 3.64157L14.5865 5.28557L12.9065 7.47307C12.7065 7.72307 12.734 7.89407 12.918 8.13557L16.126 12.3976ZM0.129977 7.71357L0.410977 6.33157C1.17598 3.59657 4.31098 2.46007 6.47298 4.15007C7.73648 5.14407 8.05048 6.55007 7.98798 8.12507H0.865977C0.758977 10.9601 2.79948 12.6711 5.40098 11.7981C6.31348 11.4916 6.85098 10.7771 7.11998 9.88307C7.25648 9.43507 7.48248 9.36507 7.90348 9.49307C7.68848 10.6111 7.20348 11.5451 6.17848 12.1296C4.64698 13.0046 2.46098 12.7216 1.31098 11.5056C0.625977 10.8001 0.342977 9.90606 0.215977 8.95007C0.195977 8.79207 0.155977 8.64157 0.125977 8.49007C0.128643 8.2314 0.129977 7.97273 0.129977 7.71407V7.71357ZM0.878977 7.52357H7.31498C7.27298 5.47357 5.99648 4.01757 4.25198 4.00507C2.33698 3.99007 0.961977 5.41157 0.878977 7.52357Z" fill="white"/>
</g>
<defs>
<clipPath id="clip0_223_218">
<rect width="16" height="16" fill="white" transform="translate(0.125977)"/>
</clipPath>
</defs>
</svg>
