<svg width="17" height="16" viewBox="0 0 17 16" fill="none" xmlns="http://www.w3.org/2000/svg">
<g clip-path="url(#clip0_221_164)">
<path d="M1.7981 3.85261C0.383101 5.88761 0.558101 8.53461 1.6401 10.7026C1.6651 10.7546 1.6926 10.8056 1.7191 10.8566L1.7691 10.9541C1.7791 10.9731 1.7901 10.9916 1.8006 11.0101C1.8191 11.0451 1.8381 11.0771 1.8571 11.1111L1.9606 11.2881L2.0196 11.3851L2.1396 11.5726L2.1906 11.6516C2.2471 11.7356 2.3046 11.8196 2.3641 11.9016L2.3981 11.9476C2.44964 12.0184 2.50231 12.0885 2.5561 12.1576L2.6161 12.2336L2.7621 12.4136L2.8181 12.4806C2.8846 12.5591 2.9531 12.6371 3.0216 12.7131C3.0286 12.7206 3.0316 12.7231 3.0336 12.7261C3.10153 12.7998 3.17054 12.8725 3.2406 12.9441L3.3071 13.0111L3.4721 13.1731L3.5396 13.2381C3.61386 13.3081 3.68937 13.3768 3.7661 13.4441L4.0141 13.6541L4.0991 13.7221L4.2706 13.8561L4.3621 13.9261L4.5546 14.0641L4.6446 14.1276C4.7061 14.1701 4.7686 14.2106 4.8316 14.2511L4.9126 14.3051C5.00911 14.3664 5.10662 14.4261 5.2051 14.4841L5.2861 14.5341L5.5061 14.6571C5.5461 14.6786 5.5871 14.6991 5.6276 14.7196L5.7846 14.8011L5.8211 14.8186L5.8861 14.8496L6.1351 14.9646L6.1876 14.9881C6.28372 15.03 6.38057 15.0702 6.4781 15.1086L6.5481 15.1366L6.8221 15.2381L6.8571 15.2501C6.95827 15.2849 7.05995 15.3183 7.1621 15.3501L7.2361 15.3721C7.3361 15.4036 7.4441 15.4421 7.5511 15.4611C14.3981 16.7096 16.3861 11.3461 16.3861 11.3461C14.7161 13.5221 11.7511 14.0961 8.9361 13.4571C8.8296 13.4331 8.7261 13.4001 8.6226 13.3691L8.5446 13.3456C8.44338 13.3145 8.3427 13.2817 8.2426 13.2471L8.2011 13.2321C8.11199 13.2005 8.02332 13.1676 7.9351 13.1336L7.8601 13.1036C7.76345 13.0656 7.6676 13.0256 7.5726 12.9836L7.5151 12.9586L7.2726 12.8456L7.2026 12.8121C7.1396 12.7821 7.0776 12.7486 7.0151 12.7121L6.8901 12.6471C6.8141 12.6071 6.7401 12.5641 6.6651 12.5211L6.5891 12.4786C6.49067 12.4205 6.39315 12.3608 6.2966 12.2996C6.2701 12.2826 6.2441 12.2646 6.2176 12.2471L6.0096 12.1086C5.9866 12.0936 5.9596 12.0766 5.9426 12.0616L5.7456 11.9191L5.6581 11.8531L5.4806 11.7141L5.4016 11.6506L5.1806 11.4641C5.17256 11.4571 5.16422 11.4504 5.1556 11.4441L4.9231 11.2326L4.8581 11.1696L4.6921 11.0046L4.6271 10.9396C4.5571 10.8681 4.4891 10.7961 4.4271 10.7226C4.4236 10.7191 4.4201 10.7156 4.4171 10.7116C4.34631 10.6339 4.27696 10.5549 4.2091 10.4746L4.1591 10.4096L4.0091 10.2246L3.9591 10.1561L3.7861 9.92611C2.2171 7.80011 1.6561 4.86111 2.9031 2.45111M6.1931 2.13861C5.1691 3.61211 5.2246 5.58861 6.0231 7.14261C6.1569 7.40452 6.30825 7.6571 6.4761 7.89861C6.6296 8.11861 6.7996 8.38011 7.0031 8.55661C7.0771 8.63811 7.1541 8.71661 7.2331 8.79511L7.2931 8.85511C7.36952 8.92963 7.44771 9.00232 7.5276 9.07311C7.5311 9.07561 7.5336 9.07911 7.5376 9.08161C7.6286 9.16161 7.7206 9.23161 7.8141 9.31061L7.8761 9.35911C7.96991 9.43145 8.06561 9.50131 8.1631 9.56861L8.1716 9.57461C8.2146 9.60461 8.2586 9.63211 8.3026 9.66111C8.3236 9.67461 8.3436 9.68911 8.3646 9.70211C8.4345 9.74695 8.50535 9.7903 8.5771 9.83211L8.6071 9.84961L8.7951 9.94961C8.8171 9.96211 8.8451 9.97261 8.8621 9.98461L8.9936 10.0526C9.0001 10.0561 9.0071 10.0586 9.0136 10.0616C9.10379 10.1065 9.19516 10.149 9.2876 10.1891L9.3476 10.2141C9.42208 10.2457 9.49709 10.2761 9.5726 10.3051L9.6686 10.3401C9.73707 10.365 9.80591 10.3888 9.8751 10.4116L9.9686 10.4416C10.0671 10.4716 10.1686 10.5116 10.2671 10.5281C15.5536 11.4041 16.7741 7.32811 16.7741 7.32811C15.6741 8.91311 13.5441 9.66811 11.2701 9.07811C11.1696 9.05166 11.0697 9.02282 10.9706 8.99161C10.9406 8.98261 10.9106 8.97261 10.8806 8.96261L10.6706 8.89061L10.5706 8.85561C10.4951 8.82648 10.4201 8.79615 10.3456 8.76461L10.2846 8.73961C10.1916 8.69917 10.0996 8.65649 10.0086 8.61161L9.8701 8.54161L9.7901 8.50061C9.73127 8.46867 9.67293 8.43583 9.6151 8.40211L9.5731 8.37861C9.50157 8.3367 9.43089 8.29336 9.3611 8.24861C9.3396 8.23511 9.3186 8.22011 9.2971 8.20611L9.1596 8.11511C9.06276 8.04799 8.96772 7.9783 8.8746 7.90611L8.8096 7.85611C7.8096 7.07011 7.0256 5.99611 6.6506 4.77911C6.2576 3.51661 6.3421 2.09911 7.0231 0.949107M9.8891 0.857607C9.2861 1.75011 9.2261 2.84911 9.6451 3.83011C10.0866 4.87161 10.9916 5.68811 12.0481 6.08011L12.1791 6.13011L12.2371 6.14811L12.4256 6.19811C15.3446 6.76211 16.1356 4.70011 16.3471 4.39661C15.6536 5.39511 14.4881 5.63461 13.0581 5.28761C12.9451 5.26011 12.8211 5.21911 12.7121 5.18061C12.5722 5.13102 12.435 5.07411 12.3011 5.01011C12.0469 4.88788 11.8056 4.74065 11.5806 4.57061C10.3011 3.60011 9.5061 1.74311 10.3411 0.235107" fill="#0868AC"/>
</g>
<defs>
<clipPath id="clip0_221_164">
<rect width="16" height="16" fill="white" transform="translate(0.726074)"/>
</clipPath>
</defs>
</svg>
