<svg width="8" height="16" viewBox="0 0 8 16" fill="none" xmlns="http://www.w3.org/2000/svg">
<g id="Logo" clip-path="url(#clip0_243_267)">
<path id="Vector" d="M5.2443 1.77744C4.57279 0.983328 3.99453 0.176813 3.8764 0.00930596C3.86396 -0.00310199 3.8453 -0.00310199 3.83287 0.00930596C3.71473 0.176813 3.13649 0.983328 2.46497 1.77744C-3.29888 9.10431 3.37276 14.0489 3.37276 14.0489L3.42872 14.0861C3.47846 14.8492 3.60281 15.9473 3.60281 15.9473H3.85152H4.10023C4.10023 15.9473 4.22459 14.8554 4.27434 14.0861L4.33029 14.0427C4.3365 14.0427 11.0082 9.10431 5.2443 1.77744ZM3.85152 13.9372C3.85152 13.9372 3.55308 13.6829 3.47224 13.5526V13.5402L3.83287 5.56187C3.83287 5.53705 3.87018 5.53705 3.87018 5.56187L4.23081 13.5402V13.5526C4.14998 13.6829 3.85152 13.9372 3.85152 13.9372Z" fill="#00ED64"/>
</g>
<defs>
<clipPath id="clip0_243_267">
<rect width="7.47082" height="16" fill="white" transform="translate(0.119141)"/>
</clipPath>
</defs>
</svg>
