<svg width="17" height="16" viewBox="0 0 17 16" fill="none" xmlns="http://www.w3.org/2000/svg">
<g id="Logo" clip-path="url(#clip0_595_4567)">
<path id="Vector" d="M14.5112 0H1.63623C0.773286 0 0.0737305 0.699555 0.0737305 1.5625V14.4375C0.0737305 15.3004 0.773286 16 1.63623 16H14.5112C15.3742 16 16.0737 15.3004 16.0737 14.4375V1.5625C16.0737 0.699555 15.3742 0 14.5112 0Z" fill="#3178C6"/>
<path id="Vector_2" d="M14.5112 0H1.63623C0.773286 0 0.0737305 0.699555 0.0737305 1.5625V14.4375C0.0737305 15.3004 0.773286 16 1.63623 16H14.5112C15.3742 16 16.0737 15.3004 16.0737 14.4375V1.5625C16.0737 0.699555 15.3742 0 14.5112 0Z" fill="#3178C6"/>
<path id="Vector_3" fill-rule="evenodd" clip-rule="evenodd" d="M9.97807 12.732V14.2964C10.2324 14.4268 10.5332 14.5245 10.8804 14.5897C11.2277 14.6549 11.5936 14.6875 11.9784 14.6875C12.3534 14.6875 12.7095 14.6517 13.047 14.5799C13.3845 14.5083 13.6804 14.3901 13.9347 14.2255C14.189 14.0609 14.3904 13.8458 14.5387 13.5802C14.687 13.3146 14.7612 12.9862 14.7612 12.5951C14.7612 12.3116 14.7189 12.0631 14.6341 11.8496C14.5493 11.6361 14.427 11.4463 14.2673 11.2801C14.1075 11.1138 13.9159 10.9647 13.6926 10.8327C13.4693 10.7007 13.2174 10.5761 12.937 10.4587C12.7316 10.374 12.5474 10.2917 12.3843 10.2119C12.2213 10.132 12.0827 10.0505 11.9686 9.96744C11.8545 9.88431 11.7664 9.79631 11.7045 9.70344C11.6426 9.61053 11.6116 9.50544 11.6116 9.38809C11.6116 9.28056 11.6393 9.18359 11.6947 9.09722C11.7502 9.01084 11.8284 8.93672 11.9295 8.87478C12.0306 8.81288 12.1544 8.76478 12.3012 8.73056C12.4479 8.69634 12.6109 8.67925 12.7903 8.67925C12.9207 8.67925 13.0584 8.68903 13.2035 8.70856C13.3486 8.72813 13.4945 8.75828 13.6413 8.799C13.788 8.83975 13.9306 8.89109 14.0692 8.953C14.2078 9.01494 14.3357 9.08663 14.4531 9.16813V7.70638C14.2151 7.61513 13.9551 7.5475 13.673 7.5035C13.391 7.4595 13.0674 7.4375 12.7022 7.4375C12.3305 7.4375 11.9784 7.47744 11.6458 7.55728C11.3133 7.63712 11.0206 7.76178 10.7679 7.93125C10.5152 8.10075 10.3155 8.31666 10.1688 8.57903C10.0221 8.84137 9.94873 9.15506 9.94873 9.52009C9.94873 9.98616 10.0832 10.3838 10.3522 10.713C10.6212 11.0421 11.0296 11.3208 11.5774 11.5489C11.7925 11.6369 11.9931 11.7233 12.1789 11.808C12.3648 11.8928 12.5254 11.9808 12.6606 12.072C12.7959 12.1633 12.9027 12.2627 12.981 12.3702C13.0593 12.4778 13.0984 12.6 13.0984 12.7369C13.0984 12.8379 13.0739 12.9316 13.025 13.018C12.9761 13.1044 12.9019 13.1793 12.8025 13.2429C12.703 13.3064 12.5791 13.3561 12.4308 13.392C12.2824 13.4278 12.1088 13.4458 11.9099 13.4458C11.5708 13.4458 11.235 13.3863 10.9024 13.2673C10.5699 13.1484 10.2617 12.9699 9.97807 12.732ZM7.34811 8.87756H9.35498V7.59375H3.76123V8.87756H5.75829V14.5938H7.34811V8.87756Z" fill="white"/>
</g>
<defs>
<clipPath id="clip0_595_4567">
<rect width="16" height="16" fill="white" transform="translate(0.0737305)"/>
</clipPath>
</defs>
</svg>
