<svg width="322" height="320" viewBox="0 0 322 320" fill="none" xmlns="http://www.w3.org/2000/svg">
<g clip-path="url(#clip0_260_322)">
<path d="M312.44 122.134C276.806 61.1011 180.147 82.8368 160.407 53.1541C150.296 37.9763 138.986 20.3348 122.58 11.1741C106.942 2.40087 88.8104 -0.677077 73.004 0.478066C16.5555 4.6088 -7.3735 55.1134 3.46876 110.575C17.9446 184.555 83.5246 260.129 161.431 260.656C202.183 260.963 241.121 246.341 271.608 225.775L272.288 225.314C302.775 204.558 339.652 168.727 312.44 122.134Z" fill="#92E3A9"/>
<path opacity="0.7" d="M312.44 122.134C276.806 61.1011 180.147 82.8368 160.407 53.1541C150.296 37.9763 138.986 20.3348 122.58 11.1741C106.942 2.40087 88.8104 -0.677077 73.004 0.478066C16.5555 4.6088 -7.3735 55.1134 3.46876 110.575C17.9446 184.555 83.5246 260.129 161.431 260.656C202.183 260.963 241.121 246.341 271.608 225.775L272.288 225.314C302.775 204.558 339.652 168.727 312.44 122.134Z" fill="white"/>
<path d="M35.8196 126.571H31.8571C27.6048 126.571 23.5267 128.26 20.52 131.267C17.5132 134.274 15.824 138.352 15.824 142.604V230.585C15.824 234.838 17.5132 238.916 20.52 241.922C23.5267 244.929 27.6048 246.618 31.8571 246.618H86.2219C90.4742 246.618 94.5522 244.929 97.559 241.922C100.566 238.916 102.255 234.838 102.255 230.585" stroke="#263238" stroke-width="1.10311" stroke-linecap="round" stroke-linejoin="round" stroke-dasharray="4.41 4.41"/>
<path d="M97.8245 43.5546V26.1763C97.8245 23.576 98.8559 21.0819 100.693 19.2411C102.529 17.4004 105.021 16.3634 107.621 16.3575H178.319C180.923 16.3575 183.42 17.392 185.262 19.2334C187.103 21.0747 188.138 23.5722 188.138 26.1763" stroke="#263238" stroke-width="1.10311" stroke-linecap="round" stroke-linejoin="round" stroke-dasharray="4.41 4.41"/>
<path d="M161.431 314.45C238.762 314.45 301.452 305.691 301.452 294.886C301.452 284.081 238.762 275.322 161.431 275.322C84.0994 275.322 21.4099 284.081 21.4099 294.886C21.4099 305.691 84.0994 314.45 161.431 314.45Z" fill="#92E3A9"/>
<path opacity="0.5" d="M161.431 314.45C238.762 314.45 301.452 305.691 301.452 294.886C301.452 284.081 238.762 275.322 161.431 275.322C84.0994 275.322 21.4099 284.081 21.4099 294.886C21.4099 305.691 84.0994 314.45 161.431 314.45Z" fill="white"/>
<path d="M293.424 66.8695V198.512C293.424 202.815 291.715 206.942 288.673 209.986C285.631 213.03 281.504 214.741 277.201 214.742H45.6604C41.3571 214.741 37.2307 213.03 34.1885 209.986C31.1462 206.942 29.4373 202.815 29.4373 198.512V66.8695C29.4373 66.482 29.4373 66.1384 29.4884 65.729C29.7735 61.6339 31.601 57.7993 34.6023 54.9988C37.6037 52.1983 41.5554 50.6402 45.6604 50.639H277.201C281.311 50.6407 285.266 52.2028 288.268 55.0095C291.27 57.8161 293.095 61.6579 293.373 65.7583C293.409 66.1092 293.424 66.4894 293.424 66.8695Z" fill="white" stroke="#263238" stroke-width="1.10311" stroke-linecap="round" stroke-linejoin="round"/>
<path d="M37.3333 71.8118H286.354V193.416C286.354 197.449 284.752 201.317 281.9 204.169C279.048 207.021 275.181 208.623 271.147 208.623H52.5475C48.5144 208.623 44.6464 207.021 41.7946 204.169C38.9427 201.317 37.3406 197.449 37.3406 193.416V71.8118H37.3333Z" fill="#263238"/>
<path opacity="0.2" d="M286.362 71.8118V193.416C286.383 197.427 284.811 201.282 281.991 204.133C279.171 206.985 275.333 208.6 271.323 208.623H52.372C48.3615 208.6 44.5243 206.985 41.7042 204.133C38.884 201.282 37.3118 197.427 37.3332 193.416V71.8118H286.362Z" fill="white"/>
<path d="M293.373 65.7583H29.4885C29.7735 61.6632 31.6011 57.8286 34.6024 55.0281C37.6037 52.2276 41.5555 50.6695 45.6605 50.6683H277.201C281.306 50.6695 285.258 52.2276 288.259 55.0281C291.26 57.8286 293.088 61.6632 293.373 65.7583Z" fill="#92E3A9" stroke="#263238" stroke-width="1.10311" stroke-miterlimit="10"/>
<path d="M61.913 58.184C61.913 58.7523 61.7445 59.3078 61.4287 59.7803C61.113 60.2528 60.6643 60.6211 60.1393 60.8385C59.6143 61.056 59.0366 61.1129 58.4792 61.0021C57.9218 60.8912 57.4099 60.6175 57.0081 60.2157C56.6062 59.8139 56.3326 59.3019 56.2217 58.7446C56.1108 58.1872 56.1677 57.6095 56.3852 57.0845C56.6027 56.5595 56.971 56.1107 57.4435 55.795C57.916 55.4793 58.4715 55.3108 59.0397 55.3108C59.8018 55.3108 60.5326 55.6135 61.0714 56.1523C61.6103 56.6912 61.913 57.422 61.913 58.184Z" fill="#263238"/>
<path d="M74.0639 58.184C74.0639 58.7523 73.8953 59.3078 73.5796 59.7803C73.2639 60.2528 72.8152 60.6211 72.2902 60.8385C71.7651 61.056 71.1874 61.1129 70.6301 61.0021C70.0727 60.8912 69.5608 60.6175 69.1589 60.2157C68.7571 59.8139 68.4835 59.3019 68.3726 58.7446C68.2617 58.1872 68.3186 57.6095 68.5361 57.0845C68.7536 56.5595 69.1218 56.1107 69.5943 55.795C70.0668 55.4793 70.6223 55.3108 71.1906 55.3108C71.9526 55.3108 72.6835 55.6135 73.2223 56.1523C73.7611 56.6912 74.0639 57.422 74.0639 58.184Z" fill="#263238"/>
<path d="M83.3415 61.0573C84.9283 61.0573 86.2147 59.7709 86.2147 58.184C86.2147 56.5972 84.9283 55.3108 83.3415 55.3108C81.7547 55.3108 80.4683 56.5972 80.4683 58.184C80.4683 59.7709 81.7547 61.0573 83.3415 61.0573Z" fill="#263238"/>
<path d="M286.354 71.8118V193.416C286.354 197.449 284.752 201.317 281.9 204.169C279.048 207.021 275.18 208.623 271.147 208.623H52.5473C49.0273 208.622 45.6165 207.401 42.8967 205.166C40.1769 202.932 38.3165 199.823 37.6328 196.37V196.326C37.4469 195.362 37.3539 194.383 37.355 193.402V71.8118H286.354Z" stroke="#263238" stroke-width="1.10311" stroke-miterlimit="10"/>
<path d="M286.12 90.6157C285.054 90.0171 283.92 89.5482 282.743 89.2193L281.375 83.1146H275.571L274.218 89.2193C273.034 89.5424 271.894 90.0114 270.826 90.6157L265.584 87.26L261.482 91.3468L264.779 96.5889C264.176 97.6577 263.707 98.7971 263.383 99.9812L257.278 101.334V107.139L263.383 108.506C263.703 109.696 264.172 110.841 264.779 111.913L261.424 117.191L265.532 121.293L270.804 117.937C271.87 118.542 273.007 119.014 274.189 119.341L275.549 125.438H281.332L282.691 119.341C283.87 119.011 285.004 118.539 286.069 117.937L286.34 118.113V90.4695L286.12 90.6157ZM278.488 111.818C277.004 111.818 275.553 111.378 274.319 110.553C273.086 109.729 272.124 108.557 271.557 107.185C270.989 105.814 270.841 104.306 271.131 102.851C271.421 101.395 272.136 100.059 273.186 99.0099C274.236 97.9612 275.573 97.2473 277.029 96.9587C278.484 96.6701 279.993 96.8197 281.363 97.3886C282.734 97.9574 283.905 98.92 284.728 100.155C285.551 101.389 285.99 102.84 285.989 104.324C285.989 105.309 285.795 106.284 285.418 107.193C285.041 108.103 284.488 108.929 283.791 109.625C283.095 110.321 282.268 110.873 281.358 111.249C280.448 111.626 279.472 111.819 278.488 111.818Z" fill="#263238"/>
<path d="M181.499 96.5011V84.2625L168.632 81.4038C167.938 78.9175 166.956 76.5204 165.708 74.261L167.265 71.8118H106.51L108.009 74.1952C106.745 76.4447 105.763 78.8412 105.084 81.3307L92.2097 84.1967V96.4646L105.084 99.3378C105.763 101.846 106.745 104.262 108.009 106.532L100.939 117.652L109.603 126.308L120.715 119.231C122.97 120.499 125.368 121.493 127.858 122.192L130.724 135.023H142.934L145.814 122.163C148.297 121.461 150.687 120.467 152.935 119.202L164.055 126.279L172.711 117.623L165.686 106.503C166.931 104.247 167.912 101.855 168.61 99.3744L181.499 96.5011ZM136.902 106.196C133.774 106.196 130.717 105.268 128.116 103.53C125.516 101.793 123.489 99.323 122.292 96.4335C121.095 93.5439 120.782 90.3642 121.392 87.2967C122.002 84.2291 123.508 81.4114 125.72 79.1998C127.932 76.9882 130.749 75.4821 133.817 74.8719C136.885 74.2617 140.064 74.5749 142.954 75.7718C145.843 76.9687 148.313 78.9956 150.051 81.5961C151.788 84.1967 152.716 87.2541 152.716 90.3818C152.717 92.4587 152.308 94.5155 151.514 96.4346C150.72 98.3536 149.555 100.097 148.086 101.566C146.618 103.035 144.874 104.199 142.955 104.994C141.036 105.788 138.979 106.197 136.902 106.196Z" fill="#263238"/>
<path d="M100.296 180.541L100.815 170.825L90.7477 167.988C90.2803 165.992 89.5887 164.054 88.6859 162.213L94.7687 153.673L88.2473 146.443L79.1377 151.561C77.3965 150.465 75.5344 149.574 73.5887 148.907L71.8486 138.583L62.1396 138.137L59.3321 148.234C57.3319 148.683 55.3927 149.37 53.5564 150.281L45.0245 144.206L37.7792 150.72L42.9408 159.837C41.8343 161.57 40.9407 163.431 40.2796 165.378L37.3552 165.861V179.021L39.49 179.62C39.9329 181.623 40.6179 183.565 41.5298 185.403L37.3333 191.289L37.6111 196.326V196.37L41.9465 201.173L51.0707 196.019C52.8089 197.137 54.6773 198.038 56.6344 198.702L58.3452 208.616L58.4256 209.033L68.1346 209.544L68.3905 208.616L70.9421 199.455C72.9513 199.005 74.9 198.318 76.747 197.408L85.2644 203.476L92.5023 196.969L87.3846 187.845C88.4809 186.114 89.3622 184.255 90.0092 182.311L100.296 180.541ZM74.5099 165.371C72.8467 163.521 70.6723 162.206 68.2617 161.592C65.8511 160.978 63.3125 161.093 60.9672 161.922C58.6219 162.752 56.5751 164.258 55.0859 166.25C53.5967 168.243 52.7319 170.632 52.601 173.116C52.47 175.6 53.0788 178.068 54.3502 180.206C55.6217 182.344 57.4987 184.057 59.7438 185.128C61.989 186.199 64.5014 186.58 66.9632 186.223C69.425 185.866 71.7256 184.787 73.574 183.122C76.042 180.893 77.5261 177.776 77.7015 174.455C77.8769 171.133 76.7293 167.878 74.5099 165.4V165.371Z" fill="#263238"/>
<path d="M177.954 166.058C178.329 164.554 178.528 163.01 178.546 161.46L185.528 157.804L183.598 150.72L175.716 151.085C174.918 149.761 173.969 148.534 172.887 147.43L175.219 139.892L168.859 136.237L163.536 142.042C162.034 141.679 160.497 141.483 158.952 141.457L155.297 134.475L148.22 136.397L148.592 144.286C147.268 145.084 146.041 146.034 144.937 147.115L137.392 144.783L133.736 151.136L139.585 156.452C139.207 157.95 139.013 159.49 139.008 161.036L132.011 164.691L133.941 171.768L141.837 171.395C142.62 172.726 143.565 173.954 144.652 175.051L142.305 182.552L148.673 186.207L153.966 180.446C155.47 180.825 157.014 181.019 158.565 181.024L162.22 188.013L169.297 186.09L168.983 179.35L168.932 178.195C170.274 177.404 171.517 176.454 172.631 175.365L180.169 177.705L183.283 172.265L183.81 171.344L177.954 166.058ZM161.233 170.357C159.418 170.858 157.496 170.808 155.709 170.214C153.923 169.621 152.353 168.51 151.198 167.022C150.044 165.535 149.357 163.739 149.225 161.861C149.093 159.983 149.522 158.108 150.457 156.474C151.393 154.84 152.792 153.52 154.478 152.683C156.164 151.845 158.061 151.527 159.928 151.769C161.795 152.011 163.548 152.802 164.965 154.042C166.382 155.282 167.398 156.914 167.886 158.733C168.536 161.156 168.202 163.738 166.955 165.916C165.709 168.094 163.652 169.69 161.233 170.357Z" fill="#263238"/>
<path d="M258.901 178.516L260.51 168.793L250.669 164.837C250.446 162.765 249.972 160.727 249.258 158.769L256.343 150.881L250.611 142.838L240.843 146.984C239.222 145.684 237.449 144.584 235.565 143.708L234.994 133.115L225.271 131.506L221.286 141.303C219.223 141.546 217.194 142.024 215.24 142.729L207.329 135.644L199.324 141.376L203.476 151.136C202.333 152.563 201.341 154.104 200.515 155.735C200.406 155.962 200.289 156.188 200.186 156.415L189.6 157L187.984 166.709L189.578 167.352L197.825 170.679C198.05 172.741 198.524 174.769 199.236 176.718L192.137 184.658L197.876 192.7L207.636 188.532C209.253 189.844 211.023 190.954 212.908 191.837L213.456 202.379L223.172 203.988L227.15 194.264C229.217 194.038 231.25 193.562 233.203 192.846L241.099 199.93L249.141 194.191L244.988 184.424C246.311 182.8 247.429 181.02 248.315 179.123L258.901 178.516ZM231.631 178.078C229.586 179.545 227.151 180.373 224.634 180.457C222.118 180.541 219.634 179.877 217.495 178.548C215.356 177.22 213.66 175.287 212.62 172.994C211.579 170.701 211.243 168.152 211.652 165.667C212.061 163.183 213.197 160.876 214.918 159.038C216.638 157.2 218.865 155.913 221.317 155.341C223.768 154.768 226.335 154.936 228.691 155.822C231.048 156.708 233.089 158.273 234.556 160.319C236.521 163.064 237.315 166.477 236.764 169.807C236.213 173.137 234.361 176.112 231.617 178.078H231.631Z" fill="#263238"/>
<path d="M127.127 106.532H50.6685C45.375 106.532 41.0837 110.823 41.0837 116.117V221.973C41.0837 227.267 45.375 231.558 50.6685 231.558H127.127C132.421 231.558 136.712 227.267 136.712 221.973V116.117C136.712 110.823 132.421 106.532 127.127 106.532Z" fill="#92E3A9" stroke="#263238" stroke-width="1.10311" stroke-miterlimit="10"/>
<path opacity="0.2" d="M127.127 106.532H50.6685C45.375 106.532 41.0837 110.823 41.0837 116.117V221.973C41.0837 227.267 45.375 231.558 50.6685 231.558H127.127C132.421 231.558 136.712 227.267 136.712 221.973V116.117C136.712 110.823 132.421 106.532 127.127 106.532Z" fill="black"/>
<path d="M145.61 125.563V231.419C145.61 232.678 145.363 233.925 144.882 235.089C144.401 236.253 143.695 237.31 142.805 238.201C141.915 239.092 140.858 239.799 139.694 240.281C138.531 240.763 137.284 241.011 136.025 241.011H59.566C58.3073 241.01 57.0611 240.761 55.8986 240.279C54.7361 239.796 53.68 239.089 52.7907 238.199C51.9013 237.308 51.1961 236.251 50.7153 235.087C50.2345 233.924 49.9876 232.678 49.9885 231.419V125.563C49.9885 123.022 50.9973 120.585 52.7933 118.788C54.5892 116.99 57.0252 115.98 59.566 115.978H136.025C138.567 115.978 141.005 116.988 142.802 118.785C144.6 120.583 145.61 123.021 145.61 125.563Z" fill="white" stroke="#263238" stroke-width="1.10311" stroke-linecap="round" stroke-linejoin="round"/>
<path d="M145.61 125.563V131.229H49.9885V125.563C49.9885 123.022 50.9973 120.585 52.7933 118.788C54.5892 116.99 57.0252 115.98 59.566 115.978H136.025C138.567 115.978 141.005 116.988 142.802 118.785C144.6 120.583 145.61 123.021 145.61 125.563Z" fill="#92E3A9" stroke="#263238" stroke-width="1.10311" stroke-miterlimit="10"/>
<path d="M82.5081 137.794H58.9812V141.742H82.5081V137.794Z" fill="#92E3A9"/>
<path d="M82.5081 173.172H58.9812V177.12H82.5081V173.172Z" fill="#92E3A9"/>
<path d="M82.5081 205.253H58.9812V209.201H82.5081V205.253Z" fill="#92E3A9"/>
<path d="M125.797 147.569H58.9812V150.464H125.797V147.569Z" fill="#263238"/>
<path d="M113.748 153.103H58.9812V155.925H113.748V153.103Z" fill="#263238"/>
<path d="M120.92 158.55H58.9812V161.372H120.92V158.55Z" fill="#263238"/>
<path d="M120.92 163.989H58.9812V166.811H120.92V163.989Z" fill="#263238"/>
<path d="M125.797 179.65H58.9812V182.545H125.797V179.65Z" fill="#263238"/>
<path d="M113.748 185.184H58.9812V188.006H113.748V185.184Z" fill="#263238"/>
<path d="M120.92 190.631H58.9812V193.453H120.92V190.631Z" fill="#263238"/>
<path d="M125.797 214.874H58.9812V217.769H125.797V214.874Z" fill="#263238"/>
<path d="M113.748 220.416H58.9812V223.238H113.748V220.416Z" fill="#263238"/>
<path d="M120.92 225.863H58.9812V228.685H120.92V225.863Z" fill="#263238"/>
<path d="M253.382 42.5751V85.3592C253.382 86.8605 253.086 88.347 252.511 89.7339C251.936 91.1208 251.094 92.3808 250.032 93.442C248.97 94.5032 247.71 95.3448 246.322 95.9186C244.935 96.4925 243.448 96.7873 241.947 96.7864H143.409C141.908 96.7873 140.421 96.4925 139.034 95.9186C137.647 95.3448 136.386 94.5032 135.324 93.442C134.262 92.3808 133.42 91.1208 132.845 89.7339C132.27 88.347 131.975 86.8605 131.975 85.3592V42.5751C131.977 39.5431 133.182 36.6358 135.326 34.4918C137.47 32.3479 140.377 31.1426 143.409 31.1406H241.947C244.98 31.1406 247.888 32.3453 250.033 34.4897C252.177 36.6341 253.382 39.5425 253.382 42.5751Z" fill="white" stroke="#222221" stroke-width="1.10311" stroke-miterlimit="10"/>
<path d="M253.382 42.5751V43.5548H131.975V42.5751C131.977 39.5431 133.182 36.6358 135.326 34.4918C137.47 32.3479 140.377 31.1426 143.409 31.1406H241.947C244.98 31.1406 247.888 32.3453 250.033 34.4897C252.177 36.6341 253.382 39.5425 253.382 42.5751Z" fill="#92E3A9" stroke="#263238" stroke-width="1.10311" stroke-miterlimit="10"/>
<path d="M149.814 39.3948C149.568 39.6406 149.256 39.8081 148.915 39.8761C148.575 39.9442 148.222 39.9097 147.901 39.777C147.58 39.6443 147.306 39.4194 147.113 39.1308C146.92 38.8422 146.817 38.5027 146.817 38.1555C146.817 37.8083 146.92 37.4689 147.113 37.1803C147.306 36.8916 147.58 36.6667 147.901 36.534C148.222 36.4014 148.575 36.3669 148.915 36.4349C149.256 36.503 149.568 36.6705 149.814 36.9163C150.14 37.2462 150.323 37.6915 150.323 38.1555C150.323 38.6196 150.14 39.0649 149.814 39.3948Z" fill="#263238"/>
<path d="M157.943 39.3948C157.698 39.6406 157.385 39.8081 157.045 39.8761C156.704 39.9442 156.351 39.9097 156.03 39.777C155.71 39.6443 155.435 39.4194 155.242 39.1308C155.049 38.8422 154.946 38.5027 154.946 38.1555C154.946 37.8083 155.049 37.4689 155.242 37.1803C155.435 36.8916 155.71 36.6667 156.03 36.534C156.351 36.4014 156.704 36.3669 157.045 36.4349C157.385 36.503 157.698 36.6705 157.943 36.9163C158.27 37.2462 158.453 37.6915 158.453 38.1555C158.453 38.6196 158.27 39.0649 157.943 39.3948Z" fill="#263238"/>
<path d="M166.073 39.3948C165.828 39.6406 165.515 39.8081 165.175 39.8761C164.834 39.9442 164.481 39.9097 164.16 39.777C163.839 39.6443 163.565 39.4194 163.372 39.1308C163.179 38.8422 163.076 38.5027 163.076 38.1555C163.076 37.8083 163.179 37.4689 163.372 37.1803C163.565 36.8916 163.839 36.6667 164.16 36.534C164.481 36.4014 164.834 36.3669 165.175 36.4349C165.515 36.503 165.828 36.6705 166.073 36.9163C166.399 37.2462 166.582 37.6915 166.582 38.1555C166.582 38.6196 166.399 39.0649 166.073 39.3948Z" fill="#263238"/>
<path d="M179.401 51.4214H139.717V85.7247H179.401V51.4214Z" stroke="#263238" stroke-width="1.10311" stroke-linecap="round" stroke-linejoin="round" stroke-dasharray="4.41 4.41"/>
<path d="M231.2 51.4214H185.528V53.834H231.2V51.4214Z" fill="#263238"/>
<path d="M220.562 56.4149H185.528V58.8202H220.562V56.4149Z" fill="#263238"/>
<path d="M237.692 61.3864H185.528V63.8209H237.692V61.3864Z" fill="#263238"/>
<path d="M229.95 66.2335H185.528V68.6681H229.95V66.2335Z" fill="#263238"/>
<path d="M256.701 148.76H234.365C231.729 148.76 229.591 150.898 229.591 153.535V166.643C229.591 169.28 231.729 171.417 234.365 171.417H256.701C259.337 171.417 261.475 169.28 261.475 166.643V153.535C261.475 150.898 259.337 148.76 256.701 148.76Z" fill="white" stroke="#263238" stroke-width="1.10311" stroke-linecap="round" stroke-linejoin="round"/>
<path d="M239.878 155.574L233.744 159.42L239.439 164.465" stroke="#263238" stroke-width="1.10311" stroke-linecap="round" stroke-linejoin="round"/>
<path d="M251.049 164.83L256.562 160.137L250.201 155.969" stroke="#263238" stroke-width="1.10311" stroke-linecap="round" stroke-linejoin="round"/>
<path d="M242.861 167.725L247.386 153.527" stroke="#263238" stroke-width="1.10311" stroke-linecap="round" stroke-linejoin="round"/>
<path d="M195.69 291.282C195.69 291.282 174.488 297.357 171.527 298.41C168.837 299.36 161.54 301.919 156.064 301.122C155.536 301.046 155.013 300.934 154.5 300.786C148.951 299.134 146.458 297.591 145.727 294.104C144.996 290.616 147.759 288.043 150.42 286.398C153.082 284.753 167.514 283.035 167.514 283.035L171.001 284.058L195.69 291.282Z" fill="#92E3A9"/>
<path d="M156.064 301.122C155.536 301.046 155.013 300.934 154.5 300.786C148.951 299.134 146.458 297.591 145.727 294.104C144.996 290.616 147.759 288.043 150.42 286.398C153.082 284.753 167.514 283.035 167.514 283.035L171.001 284.058C167.842 285.521 156.086 286.318 153.52 287.794C150.954 289.271 149.718 292.049 151.232 295.837C152.043 297.811 154.207 299.748 156.064 301.122Z" fill="white"/>
<path d="M192.503 292.144C192.503 292.144 176.579 296.268 170.263 298.907C163.946 301.546 151.905 302.702 147.598 297.262C143.292 291.823 147.101 287.129 151.393 286.084C155.684 285.038 164.363 283.393 169.1 284.058" stroke="#263238" stroke-width="1.10311" stroke-linecap="round" stroke-linejoin="round"/>
<path d="M156.379 300.837C156.379 300.837 148.278 296.392 150.969 290.163C152.957 285.572 163.763 286.566 169.115 284.058" stroke="#263238" stroke-width="1.10311" stroke-linecap="round" stroke-linejoin="round"/>
<path d="M260.268 302.109C260.049 304.303 259.281 306.357 257.088 307.651C255.626 308.514 253.55 309.026 250.574 308.996C243.139 308.901 229.16 303.586 229.16 303.586L216.073 296.348L222.88 285.579L224.744 282.655L229.555 283.737C229.555 283.737 233.539 285.996 237.546 287.794C241.552 289.593 251.283 289.988 254.712 292.744C258.141 295.5 260.641 298.498 260.268 302.109Z" fill="#92E3A9"/>
<path d="M260.269 302.109C260.049 304.303 259.282 306.357 257.088 307.651C257.72 305.495 257.591 303.187 256.723 301.115C255.26 297.832 250.501 294.937 244.243 294.455C237.984 293.972 233.196 291.048 230.688 289.739C228.729 288.723 224.598 286.5 222.88 285.579L224.744 282.655L229.555 283.737C229.555 283.737 233.539 285.996 237.546 287.794C241.552 289.593 251.283 289.988 254.712 292.744C258.141 295.5 260.641 298.498 260.269 302.109Z" fill="white"/>
<path d="M218.976 298.381C228.396 303.856 238.807 307.412 249.609 308.843C251.992 309.128 254.763 309.172 256.357 307.381C256.781 306.863 257.097 306.266 257.285 305.624C257.474 304.982 257.531 304.309 257.454 303.645C257.169 300.282 254.339 297.62 251.239 296.282C248.14 294.944 244.725 294.637 241.428 293.899C238.149 293.16 234.979 292 231.997 290.448C229.628 289.213 227.34 287.714 224.73 287.158C222.12 286.603 219.012 287.275 217.616 289.556" stroke="#263238" stroke-width="1.10311" stroke-linecap="round" stroke-linejoin="round"/>
<path d="M255.48 308.294C256.705 307.708 257.776 306.843 258.607 305.769C259.439 304.695 260.008 303.442 260.269 302.109C260.744 298.944 258.938 295.756 256.401 293.811C253.864 291.867 250.684 290.945 247.547 290.295C244.411 289.644 241.201 289.205 238.197 288.014C233.613 286.215 229.087 282.677 224.306 283.941" stroke="#263238" stroke-width="1.10311" stroke-linecap="round" stroke-linejoin="round"/>
<path d="M233.744 185.118L211.599 176.696L211.321 176.586C211.321 176.586 211.402 176.001 211.467 175.124C211.606 173.355 211.679 170.474 210.846 169.502C209.61 168.04 206.116 169.268 202.701 167.703C199.287 166.139 192.978 168.939 192.978 168.939C192.978 168.939 188.416 168.098 186.398 171.388C185.374 174.042 185.725 177.968 185.725 177.968L185.308 178.114C182.669 179.101 168.31 184.504 165.276 186.675C161.92 189.052 158.206 213.448 157.015 220.613C155.823 227.778 153.703 234.234 154.778 236.698C155.852 239.161 171.279 251.042 180.154 254.105C189.03 257.168 220.504 256.298 220.504 256.298C220.504 256.298 221.016 256.16 221.929 255.867C227.252 254.156 246.136 247.094 256.16 230.512C256.174 230.542 246.465 198.717 233.744 185.118ZM173.911 226.155C172.28 227.31 173.179 231.785 173.179 231.785L170.409 229.343L177.369 212.228L180.337 225.387C180.337 225.387 175.541 225.007 173.911 226.155ZM229.591 237.027C228.824 237.421 231.785 229.196 230.381 227.332C228.977 225.468 224.744 225.643 224.744 225.643L225.102 223.399L227.61 210.531L228.444 209.544C228.444 209.544 237.056 224.305 238.599 229.511C238.599 229.525 229.211 237.027 229.591 237.027Z" fill="#92E3A9"/>
<path d="M191.932 131.74L180.498 143.877C180.498 143.877 178.926 145.273 179.547 148.79C180.169 152.306 181.631 155.37 182.735 155.574C183.609 155.727 184.494 155.806 185.382 155.808C185.382 155.808 187.831 161.116 189.571 163.2C189.571 163.2 190.17 171.395 189.849 173.669C189.849 173.669 193.958 177.259 197.825 177.712C201.693 178.165 207.666 172.243 207.666 172.243L209.128 164.991C209.128 164.991 212.637 159.669 212.871 158.25C213.105 156.832 214.714 157.197 215.503 156.496C216.293 155.794 218.113 152.672 218.428 149.718C218.742 146.765 218.749 143.372 215.32 144.367C212.345 143.57 214.209 137.282 214.209 137.282L208.982 132.676L191.932 131.74Z" fill="white"/>
<path opacity="0.5" d="M211.599 176.696C211.427 177.148 211.229 177.589 211.007 178.019C209.121 181.572 200.903 188.35 200.903 188.35L198.417 180.71L197.057 188.35C194.316 187.151 185.952 179.905 185.952 179.905C185.952 179.905 185.667 179.225 185.323 178.165L185.74 178.019C185.74 178.019 185.389 174.064 186.413 171.439C188.416 168.149 192.993 168.99 192.993 168.99C192.993 168.99 199.302 166.19 202.716 167.754C206.13 169.319 209.625 168.105 210.861 169.553C212.096 171.001 211.336 176.615 211.336 176.615L211.599 176.696Z" fill="white"/>
<path opacity="0.2" d="M233.744 185.118L211.599 176.696L211.321 176.586C211.321 176.586 211.402 176.001 211.467 175.124L211.007 177.997L207.731 182.442C211.233 183.732 214.651 185.236 217.967 186.946C219.554 187.796 220.849 189.104 221.684 190.7C222.518 192.296 222.853 194.106 222.646 195.895L218.566 230.805L216.892 250.625L221.944 255.867C227.267 254.156 246.151 247.094 256.174 230.512C256.174 230.542 246.465 198.717 233.744 185.118ZM229.591 237.027C228.824 237.421 231.785 229.196 230.381 227.332C228.977 225.468 224.744 225.643 224.744 225.643L225.102 223.399L227.61 210.531L228.444 209.544C228.444 209.544 237.056 224.305 238.599 229.511C238.599 229.525 229.211 237.027 229.591 237.027Z" fill="black"/>
<path opacity="0.2" d="M181.806 227.332L178.363 215.824C178.363 215.824 172.185 194.761 167.952 189.571L169.063 204.383C169.063 204.383 165.408 222.075 162.067 227.332C158.726 232.589 157.98 233.912 162.067 233.912C166.154 233.912 176.104 241.837 176.104 241.837L175.336 235.257L181.806 227.332ZM173.128 231.784L170.357 229.343L177.317 212.227L180.286 225.387C180.286 225.387 175.519 225.029 173.889 226.177C172.258 227.325 173.128 231.784 173.128 231.784Z" fill="black"/>
<path d="M189.571 163.2C189.571 163.2 190.2 169.407 189.571 172.243" stroke="#263238" stroke-width="1.10311" stroke-linecap="round" stroke-linejoin="round"/>
<path d="M208.302 171.41C208.309 169.414 208.539 167.425 208.989 165.481" stroke="#263238" stroke-width="1.10311" stroke-linecap="round" stroke-linejoin="round"/>
<path d="M209.961 136.368C209.961 136.368 213.719 141.084 213.522 144.652C213.324 148.219 213.047 152.445 213.142 156.583C213.237 160.721 206.496 169.392 203.03 170.16C199.565 170.927 196.582 171.125 194.367 168.91C192.152 166.694 189.936 163.616 187.056 159.668C184.175 155.72 184.862 147.057 184.862 147.057" stroke="#263238" stroke-width="1.10311" stroke-linecap="round" stroke-linejoin="round"/>
<path d="M200.91 150.354C200.681 151.65 200.583 152.965 200.618 154.28C200.542 155.389 200.887 156.485 201.583 157.351C202 157.775 202.599 158.119 202.68 158.703C202.677 158.967 202.604 159.225 202.468 159.45C202.332 159.675 202.137 159.859 201.905 159.983C201.436 160.219 200.984 160.488 200.552 160.787" stroke="#263238" stroke-width="1.10311" stroke-linecap="round" stroke-linejoin="round"/>
<path d="M194.966 161.24C194.966 161.24 195.398 164.04 199.148 164.625" stroke="#263238" stroke-width="1.10311" stroke-linecap="round" stroke-linejoin="round"/>
<path d="M195.354 152.489C195.354 153.301 195.003 153.951 194.572 153.951C194.14 153.951 193.789 153.301 193.789 152.489C193.789 151.678 194.14 151.027 194.572 151.027C195.003 151.027 195.354 151.685 195.354 152.489Z" fill="#263238"/>
<path d="M206.547 152.84C206.547 153.652 206.196 154.302 205.765 154.302C205.333 154.302 204.982 153.644 204.982 152.84C204.982 152.036 205.333 151.378 205.765 151.378C206.196 151.378 206.547 152.028 206.547 152.84Z" fill="#263238"/>
<path d="M204.288 149.294C204.288 149.294 207.944 145.639 211.007 149.718" stroke="#263238" stroke-width="2.20621" stroke-linecap="round" stroke-linejoin="round"/>
<path d="M196.589 149.367C196.589 149.367 194.279 146.779 190.638 149.367" stroke="#263238" stroke-width="2.20621" stroke-linecap="round" stroke-linejoin="round"/>
<path d="M189.849 166.651C189.849 166.651 192.078 172.792 197.057 174.539C202.036 176.287 208.645 167.228 208.645 167.228L208.302 166.051C208.302 166.051 203.966 171.681 199.148 170.723C194.33 169.765 189.571 163.229 189.571 163.229L189.849 166.651Z" fill="#263238"/>
<path d="M185.382 155.574C185.382 155.574 182.413 156.62 181.624 154.309C180.834 151.999 178.129 145.909 180.498 143.877C182.867 141.844 184.768 146.56 184.768 146.56" stroke="#263238" stroke-width="1.10311" stroke-linecap="round" stroke-linejoin="round"/>
<path d="M213.134 156.832C213.134 156.832 215.891 157.387 216.68 155.077C217.47 152.767 220.175 146.677 217.806 144.644C215.437 142.612 213.536 147.327 213.536 147.327" stroke="#263238" stroke-width="1.10311" stroke-linecap="round" stroke-linejoin="round"/>
<path d="M184.767 152.489C185.799 152.326 186.729 151.778 187.37 150.954C187.762 150.231 188.01 149.439 188.101 148.622C188.373 147.067 188.51 145.491 188.511 143.913C188.479 143.297 188.535 142.679 188.679 142.078C188.898 141.474 189.236 140.92 189.673 140.448C190.704 139.234 191.954 138.211 192.941 136.953C193.47 136.36 193.873 135.665 194.124 134.91C194.376 134.156 194.471 133.359 194.403 132.566C196.665 134.431 199.308 135.778 202.146 136.512C204.984 137.246 207.949 137.349 210.831 136.814C216.059 135.791 221.067 131.207 220.46 125.446C220.345 124.48 219.931 123.574 219.276 122.855C218.62 122.137 217.756 121.642 216.804 121.439C214.224 120.796 211.906 122.17 209.566 123.055C205.304 124.663 201.13 121.9 196.823 121.439C193.168 121.037 188.613 121.498 186.698 125.16C186.698 125.16 180.118 125.935 177.193 131.375C174.269 136.814 179.803 144.337 179.803 144.337C179.803 144.337 181.997 141.647 184.87 147.086L184.767 152.489Z" fill="#263238"/>
<path d="M210.415 134.979C210.415 134.979 208.704 143.899 213.171 148.219C213.171 148.219 214.151 145.536 215.138 144.878C215.849 143.295 216.151 141.559 216.014 139.829C215.877 138.098 215.307 136.431 214.355 134.979C211.051 129.788 210.415 134.979 210.415 134.979Z" fill="#263238"/>
<path opacity="0.2" d="M218.559 124.831C218.167 126.048 217.502 127.16 216.615 128.081C215.728 129.002 214.643 129.709 213.441 130.147C207.242 132.676 201.225 129.876 195.01 129.328C189.944 128.874 184.351 133.451 183.992 138.657" stroke="white" stroke-width="1.10311" stroke-linecap="round" stroke-linejoin="round"/>
<path opacity="0.2" d="M180.169 137.282C180.245 135.228 180.904 133.238 182.069 131.544C183.234 129.851 184.857 128.524 186.749 127.719" stroke="white" stroke-width="1.10311" stroke-linecap="round" stroke-linejoin="round"/>
<path d="M188.138 171.41C190.864 174.251 194.154 176.492 197.796 177.99C197.796 177.99 205.217 175.833 208.989 170.679" stroke="#263238" stroke-width="1.10311" stroke-linecap="round" stroke-linejoin="round"/>
<path d="M195.721 158.442C199.017 156.93 200.463 153.033 198.952 149.737C197.44 146.442 193.543 144.995 190.247 146.507C186.951 148.019 185.505 151.916 187.017 155.212C188.528 158.508 192.426 159.954 195.721 158.442Z" stroke="#263238" stroke-width="1.10311" stroke-linecap="round" stroke-linejoin="round"/>
<path d="M208.444 159.02C212.042 158.578 214.602 155.302 214.16 151.704C213.718 148.105 210.442 145.545 206.843 145.987C203.244 146.429 200.685 149.705 201.127 153.304C201.569 156.903 204.845 159.462 208.444 159.02Z" stroke="#263238" stroke-width="1.10311" stroke-linecap="round" stroke-linejoin="round"/>
<path d="M189.571 168.961C188.906 169.135 188.283 169.442 187.739 169.863C187.195 170.284 186.741 170.81 186.405 171.41C185.243 173.457 185.945 179.898 185.945 179.898C185.945 179.898 191.947 185.835 197.057 188.342L198.563 179.869L200.903 188.342C200.903 188.342 208.814 182.749 211.007 178.019C211.007 178.019 211.738 172.499 211.007 170.708C210.841 170.211 210.524 169.777 210.101 169.467C209.679 169.156 209.17 168.985 208.645 168.975" stroke="#263238" stroke-width="1.10311" stroke-linecap="round" stroke-linejoin="round"/>
<path d="M180.169 225.651C180.169 225.651 177.822 209.932 174.7 203.52" stroke="#263238" stroke-width="1.10311" stroke-linecap="round" stroke-linejoin="round"/>
<path d="M167.952 189.571C169.77 192.154 171.392 194.869 172.807 197.693" stroke="#263238" stroke-width="1.10311" stroke-linecap="round" stroke-linejoin="round"/>
<path d="M229.592 201.305C230.222 198.677 231.086 196.11 232.172 193.635" stroke="#263238" stroke-width="1.10311" stroke-linecap="round" stroke-linejoin="round"/>
<path d="M224.744 225.651C224.744 225.651 226.433 214.874 228.451 205.999" stroke="#263238" stroke-width="1.10311" stroke-linecap="round" stroke-linejoin="round"/>
<path d="M227.61 210.517C229.243 208.352 231.538 206.781 234.146 206.042" stroke="#263238" stroke-width="1.10311" stroke-linecap="round" stroke-linejoin="round"/>
<path d="M211.329 176.586C211.329 176.586 224.949 182.033 233.744 185.125C233.744 185.125 244.565 195.295 256.167 230.542C256.167 230.542 245.537 248.424 225.315 254.156" stroke="#263238" stroke-width="1.10311" stroke-linecap="round" stroke-linejoin="round"/>
<path d="M228.824 237.663L238.599 229.525C238.599 229.525 243.767 225.599 249.141 228.282" stroke="#263238" stroke-width="1.10311" stroke-linecap="round" stroke-linejoin="round"/>
<path d="M228.451 209.544C228.451 209.544 236.53 221.483 238.599 229.525" stroke="#263238" stroke-width="1.10311" stroke-linecap="round" stroke-linejoin="round"/>
<path d="M173.238 232.238L170.379 229.525C170.379 229.525 166.139 228.794 161.328 232.004" stroke="#263238" stroke-width="1.10311" stroke-linecap="round" stroke-linejoin="round"/>
<path d="M170.379 229.525C170.379 229.525 173.933 217.828 177.435 211.84" stroke="#263238" stroke-width="1.10311" stroke-linecap="round" stroke-linejoin="round"/>
<path d="M185.74 178.019C185.74 178.019 166.139 185.374 164.216 187.524C162.294 189.673 154.99 230.798 154.792 235.506C154.624 239.717 169.89 249.17 177.457 253.155" stroke="#263238" stroke-width="1.10311" stroke-linecap="round" stroke-linejoin="round"/>
<path d="M200.398 191.917C200.398 192.173 200.323 192.424 200.18 192.636C200.038 192.849 199.836 193.015 199.6 193.113C199.363 193.211 199.103 193.237 198.852 193.187C198.601 193.137 198.37 193.013 198.189 192.833C198.008 192.652 197.885 192.421 197.835 192.17C197.785 191.919 197.811 191.659 197.909 191.422C198.007 191.186 198.173 190.984 198.385 190.842C198.598 190.699 198.848 190.623 199.104 190.623C199.275 190.622 199.443 190.655 199.601 190.72C199.758 190.785 199.901 190.88 200.022 191C200.142 191.121 200.237 191.264 200.302 191.421C200.367 191.579 200.399 191.747 200.398 191.917Z" fill="#263238"/>
<path d="M223.077 260.802H178.48C178.203 260.802 177.937 260.692 177.741 260.496C177.545 260.3 177.435 260.034 177.435 259.757C177.435 259.479 177.545 259.213 177.741 259.017C177.937 258.821 178.203 258.711 178.48 258.711H223.077C223.355 258.711 223.621 258.821 223.817 259.017C224.013 259.213 224.123 259.479 224.123 259.757C224.123 260.034 224.013 260.3 223.817 260.496C223.621 260.692 223.355 260.802 223.077 260.802Z" fill="#263238"/>
<path d="M224.642 257.307L230.615 229.233C230.708 228.798 230.702 228.347 230.598 227.914C230.494 227.482 230.294 227.078 230.014 226.732C229.733 226.387 229.379 226.108 228.977 225.917C228.575 225.726 228.136 225.628 227.691 225.629H175.563C175.122 225.629 174.686 225.727 174.287 225.916C173.888 226.104 173.536 226.379 173.257 226.721C172.977 227.062 172.776 227.461 172.669 227.889C172.563 228.317 172.552 228.764 172.638 229.196L177.997 256.335C178.129 257.002 178.484 257.603 179.004 258.041C179.523 258.478 180.177 258.725 180.856 258.74L221.644 259.676C222.341 259.692 223.022 259.464 223.569 259.031C224.116 258.599 224.496 257.989 224.642 257.307Z" fill="white" stroke="#263238" stroke-width="1.10311" stroke-linecap="round" stroke-linejoin="round"/>
<path d="M205.619 241.83C205.617 242.652 205.372 243.456 204.914 244.139C204.456 244.822 203.806 245.354 203.045 245.668C202.285 245.982 201.449 246.063 200.643 245.902C199.836 245.74 199.095 245.344 198.514 244.762C197.933 244.179 197.538 243.438 197.378 242.631C197.218 241.825 197.301 240.989 197.616 240.229C197.931 239.469 198.464 238.82 199.148 238.363C199.832 237.906 200.636 237.663 201.459 237.663C202.005 237.663 202.547 237.77 203.052 237.98C203.557 238.189 204.016 238.497 204.403 238.884C204.789 239.271 205.095 239.73 205.304 240.236C205.513 240.741 205.619 241.283 205.619 241.83Z" fill="#263238"/>
<path d="M213.8 228.312H219.992" stroke="#263238" stroke-width="1.10311" stroke-linecap="round" stroke-linejoin="round"/>
<path d="M184.227 228.312H207.732" stroke="#263238" stroke-width="1.10311" stroke-linecap="round" stroke-linejoin="round"/>
<path d="M224.744 287.114L219.992 299.587C219.992 299.587 207.87 296.531 192.349 293.351C176.111 290.024 159.157 285.718 150.362 270.284C149.294 268.405 148.578 266.183 149.082 264.077C150.347 258.748 157.285 257.3 161.855 256.766C164.728 256.456 167.614 256.294 170.504 256.284C171.966 256.284 176.828 255.487 178.005 256.357C179.773 257.647 181.661 258.766 183.642 259.698C186.237 260.802 224.123 258.711 224.123 258.711C224.782 257.274 225.185 255.732 225.315 254.156C231.273 251.129 245.054 248.571 250.903 249.704C260.064 251.48 265.408 256.825 264.392 262.425C263.376 268.025 243.139 283.042 224.744 287.114Z" fill="#263238"/>
<path d="M224.744 287.114C224.744 287.114 213.215 284.058 203.798 277.698C194.382 271.337 187.027 263.953 173.903 265.481" stroke="white" stroke-width="1.10311" stroke-linecap="round" stroke-linejoin="round"/>
<path d="M201.641 276.199C207.593 274.488 211.957 270.635 216.731 266.943C221.767 262.902 227.174 259.347 232.881 256.328" stroke="white" stroke-width="1.10311" stroke-linecap="round" stroke-linejoin="round"/>
<path d="M199.543 153.527H201.291" stroke="#263238" stroke-width="1.10311" stroke-linecap="round" stroke-linejoin="round"/>
</g>
<defs>
<clipPath id="clip0_260_322">
<rect width="321.139" height="320" fill="white" transform="translate(0.861328)"/>
</clipPath>
</defs>
</svg>
