<svg width="386" height="320" viewBox="0 0 386 320" fill="none" xmlns="http://www.w3.org/2000/svg">
<g clip-path="url(#clip0_260_1309)">
<path d="M310.023 285.562C331.268 244.806 376.295 151.482 357.06 121.082C338.344 91.456 310.292 110.067 275.307 91.9552C240.321 73.8432 259.942 13.0624 198.427 12.192C138.023 11.3344 130.061 111.187 106.312 121.05C82.5619 130.912 26.3757 91.0912 14.273 148.48C4.85408 193.114 52.5395 258.675 74.1767 285.587L310.023 285.562Z" fill="#92E3A9"/>
<path opacity="0.7" d="M310.023 285.562C331.268 244.806 376.295 151.482 357.06 121.082C338.344 91.456 310.292 110.067 275.307 91.9552C240.321 73.8432 259.942 13.0624 198.427 12.192C138.023 11.3344 130.061 111.187 106.312 121.05C82.5619 130.912 26.3757 91.0912 14.273 148.48C4.85408 193.114 52.5395 258.675 74.1767 285.587L310.023 285.562Z" fill="white"/>
<path d="M351.249 285.562H23.2167C19.024 287.437 15.5698 289.786 18.626 291.661C24.7062 295.398 65.1236 289.165 55.955 304.115C46.7865 319.066 147.602 300.794 158.433 301.21C169.265 301.626 177.181 310.01 193.843 310.01C210.504 310.01 211.872 299.27 222.645 299.27C233.419 299.27 309.965 312.288 342.517 299.27C356.88 293.53 356.34 288.922 351.249 285.562Z" fill="#858585"/>
<path opacity="0.6" d="M351.249 285.562H23.2167C19.024 287.437 15.5698 289.786 18.626 291.661C24.7062 295.398 65.1236 289.165 55.955 304.115C46.7865 319.066 147.602 300.794 158.433 301.21C169.265 301.626 177.181 310.01 193.843 310.01C210.504 310.01 211.872 299.27 222.645 299.27C233.419 299.27 309.965 312.288 342.517 299.27C356.88 293.53 356.34 288.922 351.249 285.562Z" fill="white"/>
<path d="M14.292 285.562H353.624" stroke="#263238" stroke-width="0.75" stroke-linecap="round" stroke-linejoin="round"/>
<path d="M242.132 54.2144H262.337" stroke="#263238" stroke-width="0.75" stroke-linecap="round" stroke-linejoin="round"/>
<path d="M238.453 54.2144H240.257" stroke="#263238" stroke-width="0.75" stroke-linecap="round" stroke-linejoin="round"/>
<path d="M235.583 23.7695C231.587 23.8512 227.782 25.4909 224.985 28.3367C222.188 31.1826 220.621 35.0079 220.621 38.9919C220.621 42.976 222.188 46.8013 224.985 49.6471C227.782 52.493 231.587 54.1327 235.583 54.2143" stroke="#263238" stroke-width="0.75" stroke-linecap="round" stroke-linejoin="round"/>
<path d="M254.196 10.8287C250.47 10.8258 246.871 12.1818 244.079 14.641C241.286 17.1003 239.493 20.4929 239.037 24.1791" stroke="#263238" stroke-width="0.75" stroke-linecap="round" stroke-linejoin="round"/>
<path d="M268.571 54.2144C272.147 54.3238 275.621 53.0128 278.227 50.5698C280.833 48.1267 282.359 44.7517 282.469 41.1872C282.579 37.6226 281.263 34.1606 278.812 31.5627C276.362 28.9648 272.976 27.4438 269.4 27.3344C269.438 26.912 269.47 26.4832 269.47 26.0544C269.469 22.6619 268.331 19.3671 266.237 16.6924C264.144 14.0177 261.214 12.1163 257.913 11.2896" stroke="#263238" stroke-width="0.75" stroke-linecap="round" stroke-linejoin="round"/>
<path d="M295.14 73.2992C295.481 72.814 295.78 72.3001 296.032 71.7632L298.029 71.7952C298.328 71.0137 298.543 70.2028 298.671 69.376L296.925 68.4096C296.925 68.1216 296.97 67.8208 296.97 67.5264C296.97 67.232 296.97 66.9312 296.925 66.6368L298.671 65.6704C298.543 64.8436 298.328 64.0327 298.029 63.2512L296.032 63.2896C295.781 62.7499 295.483 62.2337 295.14 61.7472L296.167 60.0448C295.639 59.3947 295.045 58.8006 294.395 58.272L292.681 59.296C292.195 58.954 291.679 58.6563 291.14 58.4064L291.172 56.416C290.389 56.1205 289.578 55.906 288.751 55.776L287.782 57.5168" stroke="#263238" stroke-width="0.75" stroke-linecap="round" stroke-linejoin="round"/>
<path d="M278.112 72.4735C278.273 72.7615 278.446 73.0303 278.632 73.2991L277.612 75.0015C278.136 75.6546 278.73 76.249 279.384 76.7743L281.092 75.7503C281.58 76.0923 282.097 76.3901 282.639 76.6399L282.607 78.6303C283.389 78.9265 284.2 79.1409 285.027 79.2703L285.997 77.5295C286.292 77.5295 286.588 77.5679 286.889 77.5679C287.191 77.5679 287.486 77.5679 287.782 77.5295L288.751 79.2703C289.578 79.1403 290.389 78.9259 291.172 78.6303L291.14 76.6399C291.679 76.39 292.195 76.0923 292.681 75.7503L294.395 76.7743C295.047 76.2473 295.641 75.6531 296.167 75.0015" stroke="#263238" stroke-width="0.75" stroke-linecap="round" stroke-linejoin="round"/>
<path d="M276.533 63.2639H275.749C275.45 64.0454 275.235 64.8564 275.107 65.6831L276.854 66.6495C276.854 66.9439 276.815 67.2383 276.815 67.5391C276.815 67.8399 276.815 68.1343 276.854 68.4223L275.107 69.3887C275.235 70.2155 275.45 71.0264 275.749 71.8079L277.74 71.7759" stroke="#263238" stroke-width="0.75" stroke-linecap="round" stroke-linejoin="round"/>
<path d="M285.997 57.5103L285.027 55.7695C284.2 55.8989 283.389 56.1134 282.607 56.4095L282.639 58.3999C282.097 58.6498 281.58 58.9475 281.092 59.2895L279.384 58.2655C278.732 58.7925 278.138 59.3868 277.612 60.0383L278.632 61.7407C278.292 62.2287 277.993 62.7447 277.74 63.2831" stroke="#263238" stroke-width="0.75" stroke-linecap="round" stroke-linejoin="round"/>
<path d="M285.579 73.8687C284.026 73.5266 282.652 72.6281 281.719 71.3436C280.786 70.0592 280.358 68.4781 280.516 66.9C280.674 65.3219 281.408 63.8566 282.578 62.7818C283.748 61.707 285.273 61.0975 286.863 61.0687" stroke="#263238" stroke-width="0.75" stroke-linecap="round" stroke-linejoin="round"/>
<path d="M293.207 69.0431C292.864 70.4562 292.055 71.7135 290.909 72.6131C289.764 73.5126 288.348 74.0022 286.889 74.0031" stroke="#263238" stroke-width="0.75" stroke-linecap="round" stroke-linejoin="round"/>
<path d="M293.361 68.0896C293.361 68.2432 293.329 68.3904 293.303 68.544" stroke="#263238" stroke-width="0.75" stroke-linecap="round" stroke-linejoin="round"/>
<path d="M289.258 61.4911C290.475 61.967 291.52 62.7974 292.256 63.874C292.993 64.9505 293.387 66.2233 293.387 67.5263" stroke="#263238" stroke-width="0.75" stroke-linecap="round" stroke-linejoin="round"/>
<path d="M304.379 53.6448C304.569 53.3768 304.735 53.0918 304.873 52.7936H305.977C306.147 52.3624 306.267 51.9138 306.337 51.456L305.374 50.9248C305.374 50.7584 305.374 50.5984 305.374 50.432C305.374 50.2656 305.374 50.0992 305.374 49.9392L306.337 49.408C306.268 48.95 306.147 48.5013 305.977 48.0704H304.873C304.735 47.7722 304.569 47.4872 304.379 47.2192L304.95 46.272C304.656 45.9144 304.327 45.5864 303.968 45.2928L303.018 45.8624C302.749 45.6712 302.463 45.5062 302.164 45.3696V44.2688C301.731 44.0993 301.281 43.9791 300.822 43.9104L300.289 44.8704" stroke="#263238" stroke-width="0.75" stroke-linecap="round" stroke-linejoin="round"/>
<path d="M294.96 53.1903C295.05 53.3439 295.146 53.4975 295.249 53.6447L294.684 54.5919C294.973 54.9504 295.3 55.2766 295.66 55.5647L296.61 55.0015C296.88 55.1892 297.166 55.354 297.464 55.4943V56.5951C297.897 56.7638 298.347 56.884 298.806 56.9535L299.339 55.9871C299.503 55.9967 299.668 55.9967 299.833 55.9871C299.998 55.9968 300.163 55.9968 300.328 55.9871L300.86 56.9535C301.32 56.8848 301.77 56.7646 302.202 56.5951V55.4943C302.501 55.3555 302.787 55.1906 303.056 55.0015L304.006 55.5647C304.367 55.275 304.696 54.949 304.989 54.5919" stroke="#263238" stroke-width="0.75" stroke-linecap="round" stroke-linejoin="round"/>
<path d="M294.087 48.0959H293.65C293.48 48.5269 293.359 48.9756 293.291 49.4335L294.26 49.9647C294.25 50.1289 294.25 50.2934 294.26 50.4575C294.25 50.6217 294.25 50.7862 294.26 50.9503L293.291 51.4815C293.36 51.9393 293.481 52.3879 293.65 52.8191H294.754" stroke="#263238" stroke-width="0.75" stroke-linecap="round" stroke-linejoin="round"/>
<path d="M299.319 44.9087L298.787 43.9487C298.327 44.0183 297.877 44.1385 297.445 44.3071L297.464 45.4399C297.165 45.5777 296.879 45.7427 296.61 45.9327L295.66 45.3631C295.301 45.6552 294.974 45.9833 294.684 46.3423L295.249 47.2895C295.061 47.559 294.895 47.8438 294.754 48.1407" stroke="#263238" stroke-width="0.75" stroke-linecap="round" stroke-linejoin="round"/>
<path d="M125.894 53.632H140.706" stroke="#263238" stroke-width="0.75" stroke-linecap="round" stroke-linejoin="round"/>
<path d="M123.198 53.632H124.52" stroke="#263238" stroke-width="0.75" stroke-linecap="round" stroke-linejoin="round"/>
<path d="M121.091 31.3215C118.123 31.3215 115.277 32.4968 113.178 34.5888C111.079 36.6808 109.9 39.5182 109.9 42.4767C109.9 45.4353 111.079 48.2726 113.178 50.3647C115.277 52.4567 118.123 53.6319 121.091 53.6319" stroke="#263238" stroke-width="0.75" stroke-linecap="round" stroke-linejoin="round"/>
<path d="M134.742 21.8368C132.012 21.8381 129.378 22.8334 127.333 24.6356C125.289 26.4378 123.975 28.9225 123.64 31.6224" stroke="#263238" stroke-width="0.75" stroke-linecap="round" stroke-linejoin="round"/>
<path d="M145.297 53.632C147.892 53.6756 150.4 52.7002 152.281 50.9164C154.161 49.1325 155.262 46.6833 155.346 44.0974C155.43 41.5115 154.491 38.9962 152.731 37.0945C150.971 35.1928 148.532 34.0572 145.939 33.9328C145.939 33.6192 145.99 33.2928 145.99 32.992C145.988 30.5078 145.156 28.0951 143.624 26.1352C142.093 24.1753 139.95 22.7799 137.534 22.1696" stroke="#263238" stroke-width="0.75" stroke-linecap="round" stroke-linejoin="round"/>
<path d="M107.672 73.6704C108.041 73.1557 108.359 72.6071 108.623 72.032L110.748 72.0704C111.068 71.2435 111.3 70.3855 111.441 69.5104L109.579 68.48C109.611 68.1674 109.626 67.8533 109.624 67.5392C109.626 67.2229 109.611 66.9068 109.579 66.592L111.441 65.5616C111.3 64.6865 111.068 63.8286 110.748 63.0016H108.623C108.358 62.4272 108.04 61.8787 107.672 61.3632L108.764 59.552C108.202 58.8589 107.57 58.2261 106.876 57.664L105.059 58.7584C104.542 58.3925 103.992 58.0754 103.416 57.8112V55.6928C102.586 55.374 101.725 55.1424 100.847 55.0016L99.8137 56.8576" stroke="#263238" stroke-width="0.75" stroke-linecap="round" stroke-linejoin="round"/>
<path d="M89.5473 72.7936C89.7207 73.0944 89.9069 73.3888 90.1059 73.6704L89.0144 75.488C89.5744 76.1806 90.2072 76.8114 90.902 77.3696L92.7255 76.2816C93.2448 76.6442 93.7948 76.9611 94.3691 77.2288L94.3306 79.3472C95.1594 79.6671 96.0205 79.8967 96.8988 80.032L97.9261 78.1824C98.2407 78.1824 98.5682 78.2272 98.8764 78.2272C99.1845 78.2272 99.5184 78.2272 99.8266 78.1824L100.86 80.032C101.739 79.8963 102.6 79.6667 103.429 79.3472V77.2288C104.002 76.9597 104.552 76.6428 105.072 76.2816L106.889 77.3696C107.578 76.8207 108.206 76.2007 108.764 75.52" stroke="#263238" stroke-width="0.75" stroke-linecap="round" stroke-linejoin="round"/>
<path d="M87.8716 62.9951H87.0305C86.7099 63.8214 86.4796 64.6797 86.3435 65.5551L88.1991 66.5855C88.1991 66.8991 88.1541 67.2255 88.1541 67.5327C88.1541 67.8399 88.1541 68.1727 88.1991 68.4735L86.3435 69.5039C86.4792 70.3795 86.7096 71.2378 87.0305 72.0639L89.1557 72.0255" stroke="#263238" stroke-width="0.75" stroke-linecap="round" stroke-linejoin="round"/>
<path d="M97.9391 56.8704L96.9118 55.0144C96.0338 55.1548 95.1731 55.3865 94.3436 55.7056L94.3821 57.824C93.8051 58.0868 93.2547 58.4039 92.7384 58.7712L90.915 57.6768C90.2216 58.2389 89.5889 58.8717 89.0273 59.5648L90.0803 61.376C89.7179 61.8945 89.4 62.4426 89.1301 63.0144" stroke="#263238" stroke-width="0.75" stroke-linecap="round" stroke-linejoin="round"/>
<path d="M97.4959 74.2784C95.8229 73.9284 94.339 72.9736 93.3302 71.598C92.3213 70.2224 91.8589 68.5233 92.0319 66.8281C92.2049 65.1328 93.0012 63.5614 94.2673 62.4165C95.5334 61.2716 97.1797 60.6342 98.8891 60.6272" stroke="#263238" stroke-width="0.75" stroke-linecap="round" stroke-linejoin="round"/>
<path d="M105.618 69.12C105.252 70.6245 104.39 71.9629 103.17 72.9204C101.95 73.878 100.442 74.399 98.8892 74.4" stroke="#263238" stroke-width="0.75" stroke-linecap="round" stroke-linejoin="round"/>
<path d="M105.785 68.1279C105.785 68.2879 105.746 68.4479 105.721 68.6079" stroke="#263238" stroke-width="0.75" stroke-linecap="round" stroke-linejoin="round"/>
<path d="M101.413 61.1007C102.705 61.605 103.815 62.4849 104.6 63.6262C105.384 64.7674 105.806 66.1174 105.811 67.5007" stroke="#263238" stroke-width="0.75" stroke-linecap="round" stroke-linejoin="round"/>
<path d="M81.2135 66.9311C81.4868 66.5432 81.7253 66.132 81.9262 65.7023H83.5249C83.764 65.0819 83.9383 64.4385 84.0449 63.7823L82.6453 63.0079C82.6453 62.7775 82.6774 62.5407 82.6774 62.2975C82.6774 62.0543 82.6774 61.8239 82.6453 61.5871L84.0449 60.7999C83.9379 60.1439 83.7636 59.5005 83.5249 58.8799H81.9262C81.7267 58.4495 81.4881 58.0382 81.2135 57.6511L82.0353 56.3199C81.6133 55.8022 81.1377 55.3303 80.6164 54.9119L79.2488 55.7247C78.855 55.4634 78.4406 55.2344 78.0096 55.0399V53.4527C77.388 53.2118 76.7423 53.038 76.0835 52.9343L75.313 54.3039" stroke="#263238" stroke-width="0.75" stroke-linecap="round" stroke-linejoin="round"/>
<path d="M67.6084 66.272C67.7368 66.496 67.878 66.72 68.0257 66.912L67.2039 68.2752C67.6275 68.7934 68.1029 69.2673 68.6228 69.6896L69.9904 68.8704C70.3789 69.1438 70.7915 69.3816 71.2231 69.5808V71.1744C71.8449 71.4149 72.4906 71.5887 73.1493 71.6928L73.9262 70.2976C74.1629 70.3233 74.4008 70.3361 74.6389 70.336C74.8769 70.3359 75.1148 70.3231 75.3515 70.2976L76.1284 71.6928C76.7872 71.5891 77.433 71.4153 78.0546 71.1744V69.5808C78.489 69.383 78.9038 69.1452 79.2937 68.8704L80.6613 69.6896C81.1812 69.2673 81.6567 68.7934 82.0803 68.2752" stroke="#263238" stroke-width="0.75" stroke-linecap="round" stroke-linejoin="round"/>
<path d="M66.3242 58.8799H65.6822C65.4434 59.5005 65.2691 60.1438 65.1621 60.7999L66.5618 61.5743C66.5618 61.8111 66.5297 62.0479 66.5297 62.2847C66.5297 62.5215 66.5297 62.7647 66.5618 62.9951L65.1621 63.7695C65.2687 64.4256 65.443 65.069 65.6822 65.6895H67.2809" stroke="#263238" stroke-width="0.75" stroke-linecap="round" stroke-linejoin="round"/>
<path d="M73.9005 54.304L73.1236 52.9152C72.4649 53.0193 71.8192 53.193 71.1975 53.4336V55.0208C70.7685 55.2249 70.3563 55.4624 69.9647 55.7312L68.5972 54.9184C68.0759 55.3367 67.6002 55.8086 67.1782 56.3264L68.0001 57.696C67.7231 58.0815 67.4844 58.4931 67.2874 58.9248" stroke="#263238" stroke-width="0.75" stroke-linecap="round" stroke-linejoin="round"/>
<path d="M73.9005 65.7792C73.0437 65.5984 72.2842 65.1084 71.7679 64.4034C71.2516 63.6983 71.015 62.8279 71.1033 61.9595C71.1917 61.091 71.599 60.2857 72.2469 59.6984C72.8947 59.1111 73.7374 58.7832 74.6131 58.7776" stroke="#263238" stroke-width="0.75" stroke-linecap="round" stroke-linejoin="round"/>
<path d="M78.0609 63.1423C77.8738 63.9135 77.4321 64.5996 76.8069 65.0906C76.1816 65.5815 75.409 65.8488 74.613 65.8495" stroke="#263238" stroke-width="0.75" stroke-linecap="round" stroke-linejoin="round"/>
<path d="M75.9102 59.0208C76.5735 59.2798 77.1428 59.7324 77.5438 60.3194C77.9448 60.9063 78.1586 61.6002 78.1573 62.3104" stroke="#263238" stroke-width="0.75" stroke-linecap="round" stroke-linejoin="round"/>
<path d="M192.771 261.555C192.771 261.555 171.73 249.427 174.536 246.054C177.342 242.681 186.986 252.115 186.986 252.115C186.986 252.115 168.398 228.87 171.73 226.515C175.063 224.16 184.527 239.533 184.527 239.533C184.527 239.533 173.13 213.894 177.515 213.171C181.901 212.448 188.912 235.334 188.912 235.334C188.912 235.334 185.933 219.085 188.912 218.733C191.891 218.381 193.997 244.48 193.997 244.48C193.997 244.48 193.849 232.198 196.462 232.281C199.076 232.365 200.135 259.84 192.771 261.555Z" fill="#92E3A9"/>
<path opacity="0.4" d="M192.771 261.555C192.771 261.555 171.73 249.427 174.536 246.054C177.342 242.681 186.986 252.115 186.986 252.115C186.986 252.115 168.398 228.87 171.73 226.515C175.063 224.16 184.527 239.533 184.527 239.533C184.527 239.533 173.13 213.894 177.515 213.171C181.901 212.448 188.912 235.334 188.912 235.334C188.912 235.334 185.933 219.085 188.912 218.733C191.891 218.381 193.997 244.48 193.997 244.48C193.997 244.48 193.849 232.198 196.462 232.281C199.076 232.365 200.135 259.84 192.771 261.555Z" fill="white"/>
<path d="M196.064 260.531C196.064 260.531 212.758 250.931 210.511 248.256C208.263 245.581 200.649 253.062 200.649 253.062C200.649 253.062 215.371 234.65 212.732 232.781C210.093 230.912 202.594 243.091 202.594 243.091C202.594 243.091 211.621 222.79 208.148 222.214C204.674 221.638 199.121 239.77 199.121 239.77C199.121 239.77 201.483 226.899 199.121 226.624C196.758 226.349 195.095 247.04 195.095 247.04C195.095 247.04 195.21 237.318 193.169 237.382C191.127 237.446 190.241 259.149 196.064 260.531Z" fill="#92E3A9"/>
<path opacity="0.2" d="M196.064 260.531C196.064 260.531 212.758 250.931 210.511 248.256C208.263 245.581 200.649 253.062 200.649 253.062C200.649 253.062 215.371 234.65 212.732 232.781C210.093 230.912 202.594 243.091 202.594 243.091C202.594 243.091 211.621 222.79 208.148 222.214C204.674 221.638 199.121 239.77 199.121 239.77C199.121 239.77 201.483 226.899 199.121 226.624C196.758 226.349 195.095 247.04 195.095 247.04C195.095 247.04 195.21 237.318 193.169 237.382C191.127 237.446 190.241 259.149 196.064 260.531Z" fill="black"/>
<path d="M178.1 257.28V258.56C178.101 259.096 178.276 259.617 178.597 260.047C178.918 260.477 179.37 260.792 179.885 260.947L181.811 281.101C181.93 282.378 182.522 283.565 183.472 284.431C184.421 285.297 185.66 285.78 186.947 285.785H201.034C202.32 285.778 203.558 285.295 204.507 284.429C205.457 283.564 206.049 282.377 206.17 281.101L208.096 260.947C208.613 260.794 209.066 260.479 209.389 260.049C209.712 259.619 209.887 259.097 209.888 258.56V257.28H178.1Z" fill="#263238"/>
<path d="M180.206 264.32C180.528 264.368 180.857 264.34 181.167 264.239C181.477 264.138 181.759 263.966 181.99 263.737L183.647 262.08C184.038 261.693 184.566 261.476 185.117 261.476C185.668 261.476 186.197 261.693 186.588 262.08L188.244 263.737C188.635 264.124 189.164 264.342 189.714 264.342C190.265 264.342 190.794 264.124 191.185 263.737L192.854 262.08C193.244 261.693 193.771 261.476 194.321 261.476C194.871 261.476 195.398 261.693 195.788 262.08L197.451 263.737C197.841 264.124 198.368 264.341 198.918 264.341C199.468 264.341 199.996 264.124 200.385 263.737L202.055 262.08C202.446 261.693 202.974 261.476 203.525 261.476C204.076 261.476 204.604 261.693 204.995 262.08L206.652 263.737C206.955 264.048 207.352 264.25 207.782 264.313" stroke="#7F7F7F" stroke-width="0.75" stroke-linecap="round" stroke-linejoin="round"/>
<path d="M249.136 72.5056H126.864C123.406 72.5056 120.604 75.2994 120.604 78.7456V200.627C120.604 204.073 123.406 206.867 126.864 206.867H249.136C252.594 206.867 255.396 204.073 255.396 200.627V78.7456C255.396 75.2994 252.594 72.5056 249.136 72.5056Z" fill="#263238"/>
<mask id="mask0_260_1309" style="mask-type:luminance" maskUnits="userSpaceOnUse" x="120" y="72" width="136" height="135">
<path d="M249.136 72.5056H126.864C123.406 72.5056 120.604 75.2994 120.604 78.7456V200.627C120.604 204.073 123.406 206.867 126.864 206.867H249.136C252.594 206.867 255.396 204.073 255.396 200.627V78.7456C255.396 75.2994 252.594 72.5056 249.136 72.5056Z" fill="white"/>
</mask>
<g mask="url(#mask0_260_1309)">
<path opacity="0.8" d="M249.136 72.5056H126.864C123.406 72.5056 120.604 75.2994 120.604 78.7456V200.627C120.604 204.073 123.406 206.867 126.864 206.867H249.136C252.594 206.867 255.396 204.073 255.396 200.627V78.7456C255.396 75.2994 252.594 72.5056 249.136 72.5056Z" fill="white"/>
</g>
<path d="M249.136 72.5056H126.864C123.406 72.5056 120.604 75.2994 120.604 78.7456V200.627C120.604 204.073 123.406 206.867 126.864 206.867H249.136C252.594 206.867 255.396 204.073 255.396 200.627V78.7456C255.396 75.2994 252.594 72.5056 249.136 72.5056Z" stroke="#263238" stroke-width="0.75" stroke-linecap="round" stroke-linejoin="round"/>
<path d="M245.766 88.6464H130.234C126.777 88.6464 123.974 91.4401 123.974 94.8864V197.267C123.974 200.713 126.777 203.507 130.234 203.507H245.766C249.223 203.507 252.026 200.713 252.026 197.267V94.8864C252.026 91.4401 249.223 88.6464 245.766 88.6464Z" fill="#263238"/>
<path d="M245.766 88.6464H130.234C126.777 88.6464 123.974 91.4401 123.974 94.8864V197.267C123.974 200.713 126.777 203.507 130.234 203.507H245.766C249.223 203.507 252.026 200.713 252.026 197.267V94.8864C252.026 91.4401 249.223 88.6464 245.766 88.6464Z" stroke="#263238" stroke-width="0.75" stroke-linecap="round" stroke-linejoin="round"/>
<path d="M250.684 77.6321H245.939C245.198 77.6321 244.597 78.2309 244.597 78.9697V83.6993C244.597 84.438 245.198 85.0369 245.939 85.0369H250.684C251.425 85.0369 252.026 84.438 252.026 83.6993V78.9697C252.026 78.2309 251.425 77.6321 250.684 77.6321Z" fill="#92E3A9"/>
<mask id="mask1_260_1309" style="mask-type:luminance" maskUnits="userSpaceOnUse" x="244" y="77" width="9" height="9">
<path d="M250.684 77.6321H245.939C245.198 77.6321 244.597 78.2309 244.597 78.9697V83.6993C244.597 84.438 245.198 85.0369 245.939 85.0369H250.684C251.425 85.0369 252.026 84.438 252.026 83.6993V78.9697C252.026 78.2309 251.425 77.6321 250.684 77.6321Z" fill="white"/>
</mask>
<g mask="url(#mask1_260_1309)">
<path opacity="0.3" d="M250.684 77.6321H245.939C245.198 77.6321 244.597 78.2309 244.597 78.9697V83.6993C244.597 84.438 245.198 85.0369 245.939 85.0369H250.684C251.425 85.0369 252.026 84.438 252.026 83.6993V78.9697C252.026 78.2309 251.425 77.6321 250.684 77.6321Z" fill="black"/>
</g>
<path d="M250.684 77.6321H245.939C245.198 77.6321 244.597 78.2309 244.597 78.9697V83.6993C244.597 84.438 245.198 85.0369 245.939 85.0369H250.684C251.425 85.0369 252.026 84.438 252.026 83.6993V78.9697C252.026 78.2309 251.425 77.6321 250.684 77.6321Z" stroke="#263238" stroke-width="0.75" stroke-linecap="round" stroke-linejoin="round"/>
<path d="M241.541 77.6321H236.796C236.055 77.6321 235.454 78.2309 235.454 78.9697V83.6993C235.454 84.438 236.055 85.0369 236.796 85.0369H241.541C242.282 85.0369 242.883 84.438 242.883 83.6993V78.9697C242.883 78.2309 242.282 77.6321 241.541 77.6321Z" fill="#92E3A9" stroke="#263238" stroke-width="0.75" stroke-linecap="round" stroke-linejoin="round"/>
<path d="M232.392 77.6321H227.647C226.906 77.6321 226.305 78.2309 226.305 78.9697V83.6993C226.305 84.438 226.906 85.0369 227.647 85.0369H232.392C233.133 85.0369 233.733 84.438 233.733 83.6993V78.9697C233.733 78.2309 233.133 77.6321 232.392 77.6321Z" fill="#92E3A9"/>
<mask id="mask2_260_1309" style="mask-type:luminance" maskUnits="userSpaceOnUse" x="226" y="77" width="8" height="9">
<path d="M232.392 77.6321H227.647C226.906 77.6321 226.305 78.2309 226.305 78.9697V83.6993C226.305 84.438 226.906 85.0369 227.647 85.0369H232.392C233.133 85.0369 233.733 84.438 233.733 83.6993V78.9697C233.733 78.2309 233.133 77.6321 232.392 77.6321Z" fill="white"/>
</mask>
<g mask="url(#mask2_260_1309)">
<path opacity="0.7" d="M232.392 77.6321H227.647C226.906 77.6321 226.305 78.2309 226.305 78.9697V83.6993C226.305 84.438 226.906 85.0369 227.647 85.0369H232.392C233.133 85.0369 233.733 84.438 233.733 83.6993V78.9697C233.733 78.2309 233.133 77.6321 232.392 77.6321Z" fill="white"/>
</g>
<path d="M232.392 77.6321H227.647C226.906 77.6321 226.305 78.2309 226.305 78.9697V83.6993C226.305 84.438 226.906 85.0369 227.647 85.0369H232.392C233.133 85.0369 233.733 84.438 233.733 83.6993V78.9697C233.733 78.2309 233.133 77.6321 232.392 77.6321Z" stroke="#263238" stroke-width="0.75" stroke-linecap="round" stroke-linejoin="round"/>
<path d="M124.257 82.6689V79.5329C124.257 79.156 124.407 78.7947 124.674 78.5282C124.942 78.2618 125.304 78.1121 125.682 78.1121C126.06 78.1121 126.423 78.2618 126.69 78.5282C126.957 78.7947 127.108 79.156 127.108 79.5329V82.6689C127.108 83.0457 126.957 83.4071 126.69 83.6735C126.423 83.94 126.06 84.0897 125.682 84.0897C125.304 84.0897 124.942 83.94 124.674 83.6735C124.407 83.4071 124.257 83.0457 124.257 82.6689ZM126.183 82.7265V79.4753C126.183 79.0465 125.99 78.8865 125.695 78.8865C125.4 78.8865 125.207 79.0465 125.207 79.4753V82.7265C125.207 83.1553 125.393 83.3153 125.695 83.3153C125.997 83.3153 126.17 83.1553 126.17 82.7265H126.183Z" fill="#263238"/>
<path d="M127.743 78.1184H129.124C130.067 78.1184 130.53 78.6368 130.53 79.5968V80.1792C130.53 81.1328 130.067 81.6576 129.124 81.6576H128.681V84.0832H127.743V78.1184ZM129.124 80.8C129.425 80.8 129.586 80.6656 129.586 80.2432V79.5328C129.586 79.1104 129.425 78.9696 129.124 78.9696H128.681V80.8H129.124Z" fill="#263238"/>
<path d="M131.043 78.1184H133.611V78.9696H131.987V80.5504H133.271V81.4016H131.987V83.232H133.611V84.0832H131.043V78.1184Z" fill="#263238"/>
<path d="M134.144 78.1184H135.326L136.237 81.6896V78.1184H137.072V84.0832H136.109L134.979 79.7312V84.0832H134.138L134.144 78.1184Z" fill="#263238"/>
<path d="M138.998 82.6688V82.3296H139.891V82.7392C139.891 83.1616 140.077 83.3152 140.379 83.3152C140.68 83.3152 140.86 83.1616 140.86 82.72C140.86 82.2784 140.674 81.9072 140.058 81.376C139.274 80.6848 139.018 80.1984 139.018 79.52C138.985 79.3255 138.998 79.1261 139.055 78.9373C139.112 78.7485 139.213 78.5755 139.348 78.4318C139.484 78.2881 139.651 78.1775 139.836 78.1087C140.022 78.0399 140.22 78.0148 140.417 78.0352C141.335 78.0352 141.785 78.5792 141.785 79.5328V79.7824H140.899V79.4752C140.899 79.0464 140.725 78.8864 140.43 78.8864C140.135 78.8864 139.955 79.0464 139.955 79.456C139.955 79.8656 140.154 80.2048 140.77 80.736C141.554 81.4272 141.804 81.9008 141.804 82.656C141.834 82.8532 141.818 83.0545 141.759 83.2448C141.7 83.4352 141.598 83.6098 141.462 83.7556C141.325 83.9014 141.158 84.0147 140.971 84.0869C140.785 84.1591 140.585 84.1885 140.385 84.1728C139.461 84.1664 138.998 83.6224 138.998 82.6688Z" fill="#263238"/>
<path d="M142.273 82.6688V79.5328C142.26 79.3378 142.287 79.1422 142.353 78.9581C142.419 78.7739 142.522 78.6053 142.656 78.4625C142.789 78.3197 142.951 78.2059 143.131 78.1281C143.311 78.0503 143.505 78.0101 143.701 78.0101C143.897 78.0101 144.091 78.0503 144.271 78.1281C144.451 78.2059 144.613 78.3197 144.747 78.4625C144.881 78.6053 144.984 78.7739 145.05 78.9581C145.116 79.1422 145.143 79.3378 145.13 79.5328V82.6688C145.143 82.8639 145.116 83.0595 145.05 83.2436C144.984 83.4278 144.881 83.5964 144.747 83.7392C144.613 83.882 144.451 83.9958 144.271 84.0736C144.091 84.1514 143.897 84.1916 143.701 84.1916C143.505 84.1916 143.311 84.1514 143.131 84.0736C142.951 83.9958 142.789 83.882 142.656 83.7392C142.522 83.5964 142.419 83.4278 142.353 83.2436C142.287 83.0595 142.26 82.8639 142.273 82.6688ZM144.199 82.7264V79.4752C144.199 79.0464 144.013 78.8865 143.717 78.8865C143.422 78.8865 143.229 79.0464 143.229 79.4752V82.7264C143.229 83.1552 143.416 83.3152 143.717 83.3152C144.019 83.3152 144.186 83.1552 144.186 82.7264H144.199Z" fill="#263238"/>
<path d="M145.727 82.6688V78.1184H146.671V82.7392C146.671 83.1616 146.851 83.3152 147.146 83.3152C147.441 83.3152 147.628 83.1616 147.628 82.7392V78.1184H148.507V82.6688C148.542 82.8649 148.531 83.0664 148.474 83.2574C148.418 83.4483 148.317 83.6235 148.181 83.7689C148.044 83.9143 147.875 84.026 147.688 84.095C147.501 84.164 147.3 84.1884 147.101 84.1664C146.209 84.1664 145.727 83.6224 145.727 82.6688Z" fill="#263238"/>
<path d="M149.201 78.1184H150.594C151.563 78.1184 151.981 78.5728 151.981 79.488V79.8592C151.981 80.4992 151.788 80.864 151.339 81.0304C151.807 81.1776 151.981 81.6192 151.981 82.3104V83.36C151.963 83.6056 151.998 83.8522 152.084 84.0832H151.14C151.059 83.8466 151.029 83.5961 151.05 83.3472V82.2592C151.05 81.7088 150.889 81.5296 150.466 81.5296H150.138V84.0896H149.201V78.1184ZM150.485 80.6784C150.838 80.6784 151.05 80.5184 151.05 80.0384V79.5776C151.05 79.1552 150.909 78.9376 150.575 78.9376H150.145V80.6464L150.485 80.6784Z" fill="#263238"/>
<path d="M152.584 82.7008V79.5008C152.571 79.3118 152.598 79.1222 152.661 78.9436C152.725 78.7651 152.825 78.6016 152.954 78.4631C153.084 78.3247 153.241 78.2143 153.415 78.1388C153.59 78.0634 153.778 78.0244 153.968 78.0244C154.158 78.0244 154.346 78.0634 154.52 78.1388C154.695 78.2143 154.852 78.3247 154.981 78.4631C155.111 78.6016 155.211 78.7651 155.275 78.9436C155.338 79.1222 155.364 79.3118 155.352 79.5008V80.1408H154.465V79.456C154.465 79.0592 154.273 78.8992 153.997 78.8992C153.721 78.8992 153.522 79.0592 153.522 79.456V82.784C153.522 83.1744 153.714 83.328 153.997 83.328C154.279 83.328 154.465 83.1744 154.465 82.784V81.8752H155.352V82.7136C155.364 82.9026 155.338 83.0923 155.275 83.2708C155.211 83.4493 155.111 83.6129 154.981 83.7513C154.852 83.8898 154.695 84.0001 154.52 84.0756C154.346 84.1511 154.158 84.19 153.968 84.19C153.778 84.19 153.59 84.1511 153.415 84.0756C153.241 84.0001 153.084 83.8898 152.954 83.7513C152.825 83.6129 152.725 83.4493 152.661 83.2708C152.598 83.0923 152.571 82.9026 152.584 82.7136V82.7008Z" fill="#263238"/>
<path d="M155.916 78.1184H158.485V78.9696H156.854V80.5504H158.138V81.4016H156.854V83.232H158.472V84.0832H155.904L155.916 78.1184Z" fill="#263238"/>
<path d="M291.21 245.286C291.21 245.286 292.283 252.326 292.026 254.662C291.178 262.515 287.14 270.304 285.432 285.562H351.031C351.031 285.562 351.628 257.734 349.053 245.286H291.21Z" fill="#858585" stroke="#263238" stroke-linecap="round" stroke-linejoin="round"/>
<path d="M290.832 249.286C290.832 249.286 289.214 221.92 286.042 195.578C284.116 179.776 280.957 164.122 280.263 152.422C279.307 137.12 298.055 141.37 314.376 140.691C330.697 140.013 346.549 137.901 347.679 152.122C348.809 166.342 350.369 248.384 350.369 248.384C350.369 248.384 319.416 256.64 290.832 249.286Z" fill="#92E3A9"/>
<mask id="mask3_260_1309" style="mask-type:luminance" maskUnits="userSpaceOnUse" x="280" y="140" width="71" height="113">
<path d="M290.832 249.286C290.832 249.286 289.214 221.92 286.042 195.578C284.116 179.776 280.957 164.122 280.263 152.422C279.307 137.12 298.055 141.37 314.376 140.691C330.697 140.013 346.549 137.901 347.679 152.122C348.809 166.342 350.369 248.384 350.369 248.384C350.369 248.384 319.416 256.64 290.832 249.286Z" fill="white"/>
</mask>
<g mask="url(#mask3_260_1309)">
<g opacity="0.2">
<path d="M372.193 200.109L378.305 198.189L373.528 197.773L376.193 193.472C375.551 194.701 373.875 195.046 372.565 194.598C371.255 194.15 370.247 193.12 369.297 192.122C364.938 187.571 360.533 182.957 357.419 177.485C354.305 172.013 352.565 165.478 353.965 159.36L351.737 164.89L348.34 155.437C348.661 156.934 348.584 158.489 348.118 159.948C347.652 161.407 346.812 162.72 345.682 163.757C344.777 164.563 343.66 165.229 343.185 166.362C342.987 166.874 342.945 167.432 343.063 167.968C351.589 213.408 323.865 213.67 314.17 211.168C305.458 208.928 297.477 197.99 297.149 189.139C297.146 188.886 297.21 188.636 297.335 188.415C297.459 188.194 297.64 188.01 297.858 187.88C298.077 187.75 298.325 187.68 298.58 187.676C298.834 187.673 299.085 187.736 299.307 187.859C315.686 196.877 329.734 199.181 324.86 195.45C316.186 193.6 293.092 184.16 289.239 163.584C289.17 163.215 289.027 162.864 288.818 162.552C288.608 162.24 288.337 161.974 288.021 161.769C287.705 161.565 287.351 161.427 286.98 161.364C286.608 161.301 286.228 161.314 285.862 161.402C281.995 170.412 275.724 178.192 267.73 183.898L269.214 187.392C267.442 188.877 264.193 187.514 264.026 185.21L262.183 194.643L257.689 194.502L257.734 194.541C258.012 194.828 258.23 195.167 258.376 195.539L258.652 195.731C258.851 195.878 259.024 196.019 259.198 196.16C260.625 196.515 262.112 196.562 263.559 196.298C265.006 196.034 266.38 195.466 267.589 194.63C270.979 192.333 273.124 188.666 275.236 185.165C277.348 181.664 279.73 178.067 283.287 176.096C287.602 196.303 291.919 216.506 296.238 236.704C296.931 239.962 297.676 243.328 299.641 246.029C303.718 251.622 311.596 252.64 318.53 252.576C328.822 252.483 339.061 251.089 349.002 248.429L348.289 174.08L368.09 198.592C365.188 202.577 362.29 206.566 359.397 210.56C361.496 207.883 364.144 205.682 367.162 204.103C370.181 202.524 373.502 201.603 376.905 201.402C376.3 200.798 375.547 200.361 374.721 200.134C373.894 199.907 373.023 199.899 372.193 200.109Z" fill="black"/>
</g>
</g>
<path d="M290.832 249.286C290.832 249.286 289.214 221.92 286.042 195.578C284.116 179.776 280.957 164.122 280.263 152.422C279.307 137.12 298.055 141.37 314.376 140.691C330.697 140.013 346.549 137.901 347.679 152.122C348.809 166.342 350.369 248.384 350.369 248.384C350.369 248.384 319.416 256.64 290.832 249.286Z" stroke="#263238" stroke-width="0.75" stroke-linecap="round" stroke-linejoin="round"/>
<path d="M317.509 285.562C316.914 284.072 316.201 282.632 315.377 281.254C311.371 275.936 311.872 271.405 310.401 266.451C309.952 264.934 306.876 261.184 306.876 261.184" stroke="#263238" stroke-width="0.75" stroke-linecap="round" stroke-linejoin="round"/>
<path d="M357.464 217.626L352.694 223.271L354.164 233.165L361.432 225.543L357.464 217.626Z" fill="white" stroke="#263238" stroke-width="0.75" stroke-linecap="round" stroke-linejoin="round"/>
<path d="M353.567 223.68C353.368 222.72 353.259 220.269 352.328 219.949C350.62 219.36 347.332 222.458 346.292 223.93C345.804 224.627 344.751 226.112 344.764 226.957C344.764 227.392 345.149 228.422 345.573 228.493C346.324 228.608 347.172 226.88 347.75 226.394C348.85 225.667 349.997 225.015 351.185 224.442C351.185 224.442 349.162 227.366 348.34 228.038C347.108 229.043 341.997 231.878 345.246 233.568C345.246 233.568 343.994 235.405 345.952 235.885C347.91 236.365 351.037 233.67 351.037 233.67C350.464 234.464 349.796 235.184 349.047 235.814C347.801 236.922 345.965 236.678 346.401 237.459C347.043 238.669 348.745 238.778 350.523 238.182C351.426 237.938 352.269 237.511 353.001 236.929C353.732 236.346 354.335 235.621 354.774 234.797C356.379 232.141 354.138 226.419 353.567 223.68Z" fill="white" stroke="#1A2E35" stroke-width="0.75" stroke-linecap="round" stroke-linejoin="round"/>
<path d="M346.588 233.165C347.982 232.467 349.329 231.678 350.62 230.803C351.477 230.149 352.184 229.32 352.694 228.371" stroke="#1A2E35" stroke-width="0.75" stroke-linecap="round" stroke-linejoin="round"/>
<path d="M332.244 140.218C332.244 140.218 348.141 141.158 348.052 146.029C348.052 146.029 356.013 149.408 356.437 153.222C356.861 157.037 390.434 192.902 384.617 203.309C379.531 212.397 359.024 229.306 359.024 229.306C359.024 229.306 357.06 224.915 354.844 219.789C354.844 219.789 363.833 200.224 367.962 198.214L346.363 170.88" fill="#92E3A9"/>
<mask id="mask4_260_1309" style="mask-type:luminance" maskUnits="userSpaceOnUse" x="332" y="140" width="54" height="90">
<path d="M332.244 140.218C332.244 140.218 348.141 141.158 348.052 146.029C348.052 146.029 356.013 149.408 356.437 153.222C356.861 157.037 390.434 192.902 384.617 203.309C379.531 212.397 359.024 229.306 359.024 229.306C359.024 229.306 357.06 224.915 354.844 219.789C354.844 219.789 363.833 200.224 367.962 198.214L346.363 170.88" fill="white"/>
</mask>
<g mask="url(#mask4_260_1309)">
<g opacity="0.2">
<path d="M286.151 161.28C282.287 170.294 276.013 178.076 268.013 183.776L269.547 187.27C267.775 188.762 264.527 187.392 264.36 185.094C263.743 188.243 263.129 191.398 262.517 194.56L256.636 194.374C259.512 197.286 264.572 196.851 267.962 194.554C271.352 192.256 273.49 188.582 275.608 185.088C277.727 181.594 280.064 177.965 283.66 176C287.974 196.198 292.291 216.399 296.61 236.602C297.303 239.866 298.048 243.232 300.013 245.933C304.084 251.526 311.968 252.544 318.902 252.48C329.195 252.379 339.433 250.981 349.374 248.32C349.117 223.531 348.863 198.744 348.61 173.958L368.379 198.477L358.748 211.782C360.81 208.735 363.549 206.203 366.753 204.384C369.957 202.564 373.539 201.507 377.22 201.293C376.617 200.695 375.869 200.262 375.049 200.038C374.229 199.814 373.364 199.805 372.539 200.013L378.652 198.061L373.875 197.651L376.539 193.344C375.897 194.573 374.222 194.925 372.912 194.477C371.602 194.029 370.594 192.992 369.637 191.994C365.284 187.443 360.88 182.835 357.766 177.363C354.652 171.891 352.912 165.382 354.299 159.245C353.562 161.088 352.822 162.929 352.077 164.768L348.681 155.322C349.001 156.82 348.923 158.375 348.456 159.834C347.989 161.293 347.148 162.606 346.016 163.642C345.149 164.422 344.09 165.069 343.583 166.118C342.902 167.533 343.442 169.197 343.897 170.701C346.716 180.083 345.381 190.848 339.48 198.675C333.58 206.502 322.954 210.835 313.438 208.378C303.923 205.92 296.527 196.301 297.541 186.56C307.714 190.268 318.38 192.459 329.194 193.062C320.129 191.142 311.005 188.518 303.358 183.283C295.711 178.048 289.663 169.811 289.117 160.589L286.151 161.28Z" fill="black"/>
</g>
</g>
<path d="M332.244 140.218C332.244 140.218 348.141 141.158 348.052 146.029C348.052 146.029 356.013 149.408 356.437 153.222C356.861 157.037 390.434 192.902 384.617 203.309C379.531 212.397 359.024 229.306 359.024 229.306C359.024 229.306 357.06 224.915 354.844 219.789C354.844 219.789 363.833 200.224 367.962 198.214L346.363 170.88" stroke="#263238" stroke-width="0.75" stroke-linecap="round" stroke-linejoin="round"/>
<path d="M378.857 197.459C375.32 194.976 370.299 197.587 370.299 195.955C370.299 194.323 376.341 194.176 375.84 192.493" stroke="#263238" stroke-width="0.75" stroke-linecap="round" stroke-linejoin="round"/>
<path d="M351.133 163.654C352.245 160.575 352.812 157.327 352.809 154.054" stroke="#263238" stroke-width="0.75" stroke-linecap="round" stroke-linejoin="round"/>
<path d="M348.552 151.962C348.738 155.68 348.925 160.966 348.758 164.998C348.751 165.197 348.814 165.392 348.934 165.55C349.055 165.708 349.227 165.82 349.421 165.866C349.615 165.913 349.818 165.891 349.998 165.806C350.178 165.72 350.323 165.575 350.408 165.395" stroke="#263238" stroke-width="0.75" stroke-linecap="round" stroke-linejoin="round"/>
<path d="M348.276 147.411C348.276 147.411 348.334 148.205 348.418 149.504" stroke="#263238" stroke-width="0.75" stroke-linecap="round" stroke-linejoin="round"/>
<path d="M275.73 158.08C275.73 158.08 274.78 164.666 275.73 169.37" stroke="#263238" stroke-width="0.75" stroke-linecap="round" stroke-linejoin="round"/>
<path d="M247.955 151.488L244.315 141.043C244.315 141.043 243.178 133.894 242.247 132.48C241.246 131.228 240.107 130.092 238.851 129.094C237.959 127.844 236.953 126.679 235.846 125.613C234.607 124.576 227.339 120.813 226.774 121.094C226.209 121.376 225.31 123.072 230.029 125.702C228.444 125.607 226.856 125.825 225.355 126.342C223.281 127.194 221.862 127.424 222.787 128.32C223.711 129.216 224.437 129.638 227.788 128.742C229.197 128.904 230.616 128.951 232.032 128.883L233.072 130.106C232.62 129.906 232.11 129.877 231.637 130.024C231.165 130.171 230.762 130.485 230.504 130.906C229.56 132.41 228.475 134.291 228.95 135.386C228.95 135.386 225.316 133.504 224.321 135.059C223.326 136.614 226.401 138.022 227.628 138.963C228.854 139.904 231.827 142.445 231.827 142.445C231.827 142.445 233.933 147.2 238.395 148.947C238.395 148.947 240.109 150.925 239.621 152.787L247.955 151.488Z" fill="white" stroke="#263238" stroke-width="0.75" stroke-linecap="round" stroke-linejoin="round"/>
<path d="M232.328 126.982L233.888 128.25L235.628 131.264L236.809 135.213" stroke="#263238" stroke-width="0.75" stroke-linecap="round" stroke-linejoin="round"/>
<path d="M237.804 135.213C237.804 135.213 235.326 138.176 233.567 138.598C232.794 138.28 232.047 137.903 231.332 137.472C231.018 137.197 230.543 136.666 229.586 135.904" stroke="#263238" stroke-width="0.75" stroke-linecap="round" stroke-linejoin="round"/>
<path d="M235.063 134.976L234.838 134.176C234.104 134.334 233.344 134.334 232.61 134.176L232.045 134.976C233.046 134.834 234.062 134.834 235.063 134.976Z" stroke="#263238" stroke-width="0.75" stroke-linecap="round" stroke-linejoin="round"/>
<path d="M232.565 131.635C232.848 132.272 232.96 132.971 232.893 133.664" stroke="#263238" stroke-width="0.75" stroke-linecap="round" stroke-linejoin="round"/>
<path d="M231.101 134.176C231.68 134.671 232.13 135.298 232.414 136.003C232.698 136.708 232.807 137.471 232.732 138.227" stroke="#263238" stroke-width="0.75" stroke-linecap="round" stroke-linejoin="round"/>
<path d="M234.023 130.886L235.063 132.013V133.286" stroke="#263238" stroke-width="0.75" stroke-linecap="round" stroke-linejoin="round"/>
<path d="M287.114 141.888C287.114 141.888 281.092 141.632 277.259 152.422C277.259 152.422 272.726 155.059 263.499 175.13C263.499 175.13 261.914 173.011 258.504 167.206C255.525 162.138 250.979 155.59 247.23 146.01C247.23 146.01 244.206 149.715 237.74 149.504C237.74 149.504 251.756 196.704 261.573 196.704C272.398 196.704 284.315 171.616 284.315 171.616" fill="#92E3A9"/>
<mask id="mask5_260_1309" style="mask-type:luminance" maskUnits="userSpaceOnUse" x="237" y="141" width="51" height="56">
<path d="M287.114 141.888C287.114 141.888 281.092 141.632 277.259 152.422C277.259 152.422 272.726 155.059 263.499 175.13C263.499 175.13 261.914 173.011 258.504 167.206C255.525 162.138 250.979 155.59 247.23 146.01C247.23 146.01 244.206 149.715 237.74 149.504C237.74 149.504 251.756 196.704 261.573 196.704C272.398 196.704 284.315 171.616 284.315 171.616" fill="white"/>
</mask>
<g mask="url(#mask5_260_1309)">
<g opacity="0.2">
<path d="M286.151 161.28C282.287 170.294 276.013 178.076 268.013 183.776L269.548 187.27C267.776 188.762 264.527 187.392 264.36 185.094C263.744 188.243 263.129 191.398 262.517 194.56L256.636 194.374C259.512 197.286 264.572 196.851 267.962 194.554C271.352 192.256 273.49 188.582 275.609 185.088C277.727 181.594 280.065 177.965 283.66 176C287.975 196.198 292.291 216.399 296.61 236.602C297.304 239.866 298.048 243.232 300.013 245.933C304.084 251.526 311.968 252.544 318.902 252.48C329.195 252.379 339.434 250.981 349.374 248.32C349.118 223.531 348.863 198.743 348.61 173.958L368.379 198.477L358.748 211.782C360.81 208.735 363.549 206.203 366.753 204.384C369.957 202.564 373.539 201.507 377.22 201.293C376.617 200.695 375.869 200.262 375.049 200.038C374.229 199.814 373.364 199.805 372.54 200.013L378.652 198.061L373.875 197.651L376.54 193.344C375.898 194.573 374.222 194.925 372.912 194.477C371.602 194.029 370.594 192.992 369.638 191.994C365.284 187.443 360.88 182.835 357.766 177.363C354.652 171.891 352.912 165.382 354.299 159.245C353.563 161.088 352.822 162.929 352.077 164.768L348.681 155.322C349.001 156.82 348.924 158.375 348.456 159.834C347.989 161.293 347.148 162.605 346.016 163.642C345.15 164.422 344.09 165.069 343.583 166.118C342.902 167.533 343.442 169.197 343.898 170.701C346.716 180.083 345.381 190.848 339.48 198.675C333.58 206.502 322.954 210.835 313.439 208.378C303.923 205.92 296.527 196.301 297.541 186.56C307.714 190.268 318.38 192.459 329.195 193.062C320.129 191.142 311.005 188.518 303.358 183.283C295.711 178.048 289.663 169.811 289.118 160.589L286.151 161.28Z" fill="black"/>
</g>
</g>
<path d="M287.114 141.888C287.114 141.888 281.092 141.632 277.259 152.422C277.259 152.422 272.726 155.059 263.499 175.13C263.499 175.13 261.914 173.011 258.504 167.206C255.525 162.138 250.979 155.59 247.23 146.01C247.23 146.01 244.206 149.715 237.74 149.504C237.74 149.504 251.756 196.704 261.573 196.704C272.398 196.704 284.315 171.616 284.315 171.616" stroke="#263238" stroke-width="0.75" stroke-linecap="round" stroke-linejoin="round"/>
<path d="M280.385 154.797C280.321 154.035 280.27 153.242 280.231 152.422" stroke="#263238" stroke-width="0.75" stroke-linecap="round" stroke-linejoin="round"/>
<path d="M281.413 169.094C283.165 168.902 281.637 165.312 280.706 158.074" stroke="#263238" stroke-width="0.75" stroke-linecap="round" stroke-linejoin="round"/>
<path d="M276.918 155.686C276.918 155.686 278.382 164.211 280.064 167.667" stroke="#263238" stroke-width="0.75" stroke-linecap="round" stroke-linejoin="round"/>
<path d="M317.31 123.411C317.31 123.411 318.96 139.718 322.607 141.683C322.607 141.683 322.023 147.91 311.371 147.91C300.719 147.91 300.713 139.13 300.713 139.13L317.31 123.411Z" fill="white"/>
<mask id="mask6_260_1309" style="mask-type:luminance" maskUnits="userSpaceOnUse" x="300" y="123" width="23" height="25">
<path d="M317.31 123.411C317.31 123.411 318.96 139.718 322.607 141.683C322.607 141.683 322.023 147.91 311.371 147.91C300.719 147.91 300.713 139.13 300.713 139.13L317.31 123.411Z" fill="white"/>
</mask>
<g mask="url(#mask6_260_1309)">
<path d="M294.286 105.779C294.286 105.779 292.559 116.019 292.841 118.176C293.124 120.333 292.597 122.541 293.034 126.016C293.471 129.491 296.129 139.187 302.472 140.666C305.811 141.44 312.95 138.24 315.917 131.635C316.122 131.194 317.31 126.131 317.31 126.131C317.31 126.131 320.251 128.109 321.194 124.902C322.138 121.696 323.731 118.771 321.689 116.858C319.647 114.944 316.893 119.091 316.507 120.621C316.122 122.15 314.613 120.416 314.613 120.416C314.613 120.416 313.676 113.376 311.461 111.456C309.246 109.536 313.387 105.958 311.281 103.494C309.175 101.03 299.872 101.613 294.286 105.779Z" fill="#263238" stroke="#263238" stroke-width="0.75" stroke-linecap="round" stroke-linejoin="round"/>
</g>
<path d="M317.31 123.411C317.31 123.411 318.96 139.718 322.607 141.683C322.607 141.683 322.023 147.91 311.371 147.91C300.719 147.91 300.713 139.13 300.713 139.13L317.31 123.411Z" stroke="#263238" stroke-width="0.75" stroke-linecap="round" stroke-linejoin="round"/>
<path d="M291.82 105.946C291.82 105.946 282.119 105.018 284.251 97.216C286.382 89.4144 294.479 88.5632 294.479 88.5632C294.479 88.5632 292.841 94.1632 302.453 93.0432C312.064 91.9232 322.446 91.008 322.87 100.678C323.907 103.705 324.215 106.933 323.768 110.101C323.322 113.268 322.135 116.287 320.302 118.912C314.003 127.872 308.219 120.621 308.219 120.621L303.243 109.933L293.997 107.981L291.82 105.946Z" fill="#263238"/>
<mask id="mask7_260_1309" style="mask-type:luminance" maskUnits="userSpaceOnUse" x="283" y="88" width="41" height="36">
<path d="M291.82 105.946C291.82 105.946 282.119 105.018 284.251 97.216C286.382 89.4144 294.479 88.5632 294.479 88.5632C294.479 88.5632 292.841 94.1632 302.453 93.0432C312.064 91.9232 322.446 91.008 322.87 100.678C323.907 103.705 324.215 106.933 323.768 110.101C323.322 113.268 322.135 116.287 320.302 118.912C314.003 127.872 308.219 120.621 308.219 120.621L303.243 109.933L293.997 107.981L291.82 105.946Z" fill="white"/>
</mask>
<g mask="url(#mask7_260_1309)">
<path d="M305.811 100.717C305.811 100.717 317.291 102.042 322.902 100.717C328.514 99.3921 330.048 114.541 330.048 114.541L328.687 123.782L313.374 126.413L306.312 120.134L303.39 111.36L305.811 100.717Z" fill="#858585" stroke="#263238" stroke-width="0.75" stroke-miterlimit="10"/>
</g>
<path d="M291.82 105.946C291.82 105.946 282.119 105.018 284.251 97.216C286.382 89.4144 294.479 88.5632 294.479 88.5632C294.479 88.5632 292.841 94.1632 302.453 93.0432C312.064 91.9232 322.446 91.008 322.87 100.678C323.907 103.705 324.215 106.933 323.768 110.101C323.322 113.268 322.135 116.287 320.302 118.912C314.003 127.872 308.219 120.621 308.219 120.621L303.243 109.933L293.997 107.981L291.82 105.946Z" stroke="#263238" stroke-width="0.75" stroke-miterlimit="10"/>
<path d="M290.401 104.685C290.401 104.685 288.186 115.021 288.475 117.12C288.764 119.219 288.097 121.51 288.527 124.986C288.957 128.461 290.453 141.498 298.01 140.493C305.432 139.514 315.641 133.453 316.546 127.443C316.623 126.957 317.066 125.523 317.066 125.523C317.935 125.784 318.873 125.691 319.673 125.264C320.474 124.837 321.072 124.111 321.336 123.245C322.504 120.006 324.424 117.037 322.087 115.162C319.653 113.203 316.45 117.504 315.968 119.053C315.487 120.602 313.772 118.886 313.772 118.886C313.772 118.886 312.835 111.846 310.299 109.997C307.763 108.147 312.649 104.435 310.26 102.016C307.872 99.5968 297.015 100.39 290.401 104.685Z" fill="white" stroke="#263238" stroke-width="0.75" stroke-linecap="round" stroke-linejoin="round"/>
<path d="M294.299 116.992C294.299 118.912 290.703 122.214 291.127 123.91C291.358 124.838 293.779 125.293 294.279 126.112C294.404 126.354 294.472 126.621 294.479 126.893" fill="white"/>
<path d="M294.299 116.992C294.299 118.912 290.703 122.214 291.127 123.91C291.358 124.838 293.779 125.293 294.279 126.112C294.404 126.354 294.472 126.621 294.479 126.893" stroke="#263238" stroke-width="0.75" stroke-linecap="round" stroke-linejoin="round"/>
<path d="M290.864 118.118C290.812 118.861 290.472 119.437 290.1 119.398C289.727 119.36 289.458 118.758 289.528 118.01C289.599 117.261 289.926 116.691 290.292 116.73C290.658 116.768 290.915 117.376 290.864 118.118Z" fill="#263238"/>
<path d="M299.243 116.902C299.185 117.677 298.825 118.278 298.44 118.253C298.055 118.227 297.798 117.574 297.843 116.8C297.888 116.026 298.26 115.424 298.646 115.45C299.031 115.475 299.294 116.128 299.243 116.902Z" fill="#263238"/>
<path d="M295.448 113.478C295.448 113.478 298.658 110.918 302.909 113.638" stroke="#263238" stroke-width="0.75" stroke-linecap="round" stroke-linejoin="round"/>
<path d="M304.572 128.499C304.572 128.499 297.509 134.746 294.472 129.306Z" fill="white"/>
<path d="M304.572 128.499C304.572 128.499 297.509 134.746 294.472 129.306" stroke="#263238" stroke-width="0.75" stroke-linecap="round" stroke-linejoin="round"/>
<path d="M286.876 115.29C286.876 115.29 289.002 112.384 292.61 114.528" stroke="#263238" stroke-width="0.75" stroke-linecap="round" stroke-linejoin="round"/>
<path d="M292.783 103.27C292.783 103.27 282.318 103.949 287.563 110.464C287.563 110.464 287.448 105.773 292.783 103.27Z" fill="#263238"/>
<path d="M292.783 118.074C292.783 119.853 291.499 121.274 289.945 121.274C288.392 121.274 287.114 119.834 287.114 118.074C287.114 116.314 288.398 115.514 289.945 115.514C291.493 115.514 292.783 116.288 292.783 118.074Z" stroke="#263238" stroke-width="0.75" stroke-linecap="round" stroke-linejoin="round"/>
<path d="M302.742 116.851C302.658 117.731 302.248 118.548 301.592 119.143C300.936 119.737 300.081 120.066 299.194 120.066C298.308 120.066 297.453 119.737 296.797 119.143C296.141 118.548 295.731 117.731 295.647 116.851C295.647 115.072 297.233 114.291 299.191 114.291C301.149 114.291 302.742 115.072 302.742 116.851Z" stroke="#263238" stroke-width="0.75" stroke-linecap="round" stroke-linejoin="round"/>
<path d="M292.572 116.851C292.572 116.077 295.647 115.68 295.647 116.454" stroke="#263238" stroke-width="0.75" stroke-linecap="round" stroke-linejoin="round"/>
<path d="M302.517 115.597L317.31 116.851" stroke="#263238" stroke-width="0.75" stroke-linecap="round" stroke-linejoin="round"/>
<path d="M294.048 201.952C300.231 212.877 315.91 235.821 339.076 237.152" stroke="#263238" stroke-width="0.75" stroke-linecap="round" stroke-linejoin="round"/>
<path d="M291.088 196.256C291.088 196.256 291.544 197.261 292.424 198.963" stroke="#263238" stroke-width="0.75" stroke-linecap="round" stroke-linejoin="round"/>
<path d="M325.149 140.218C324.122 140.218 323.082 140.282 322.029 140.326C321.464 145.082 315.891 146.458 310.742 146.458C305.721 146.458 302.87 145.146 302.472 140.666C301.419 140.666 300.379 140.666 299.358 140.666C299.769 147.008 303.962 149.504 310.742 149.504C317.67 149.472 324.726 146.867 325.149 140.218Z" fill="#92E3A9" stroke="#263238" stroke-miterlimit="10"/>
<path d="M262.992 187.238C262.992 187.238 262.71 179.334 263.84 178.957C264.97 178.579 264.97 183.283 267.994 183.098" stroke="#263238" stroke-width="0.75" stroke-linecap="round" stroke-linejoin="round"/>
<path d="M226.372 122.738L150.962 120.165C149.396 120.112 148.082 121.334 148.029 122.896L147.824 128.844C147.771 130.406 148.997 131.715 150.564 131.768L225.974 134.341C227.54 134.394 228.853 133.172 228.907 131.61L229.111 125.662C229.165 124.1 227.938 122.791 226.372 122.738Z" fill="white" stroke="#263238" stroke-width="0.75" stroke-linecap="round" stroke-linejoin="round"/>
<path d="M183.724 127.885V127.245L186.337 126.125V126.803L184.54 127.565L186.337 128.32V129.005L183.724 127.885Z" fill="#263238"/>
<path d="M189.239 124.589H190.048L187.673 130.56H186.857L189.239 124.589Z" fill="#263238"/>
<path d="M190.588 128.326L192.392 127.571L190.588 126.81V126.131L193.201 127.251V127.891L190.588 129.018V128.326Z" fill="#263238"/>
<path d="M143.974 124.147H142.138" stroke="#263238" stroke-width="0.75" stroke-linecap="round" stroke-linejoin="round"/>
<path d="M212.189 96.4364L137.593 107.748C136.043 107.983 134.978 109.426 135.214 110.97L136.112 116.855C136.348 118.399 137.795 119.461 139.345 119.226L213.941 107.914C215.49 107.679 216.555 106.236 216.319 104.692L215.421 98.8076C215.186 97.263 213.738 96.2014 212.189 96.4364Z" fill="#92E3A9" stroke="#263238" stroke-width="0.75" stroke-linecap="round" stroke-linejoin="round"/>
<path d="M27.5184 149.818C27.5184 149.818 20.9245 153.062 19.4542 159.584C19.4542 159.584 17.5858 157.722 16.841 165.734C16.841 165.734 0.198991 196.493 0.00637511 209.728C-0.186241 222.963 31.2359 244.397 31.2359 244.397C31.2359 244.397 34.6067 239.917 33.8555 235.821C33.8555 235.821 21.7014 212.896 15.5313 210.099C15.5313 210.099 22.4462 193.325 27.1268 190.157C31.8073 186.989 27.5184 149.818 27.5184 149.818Z" fill="#263238" stroke="#263238" stroke-width="0.75" stroke-linecap="round" stroke-linejoin="round"/>
<path opacity="0.2" d="M15.5055 210.099C15.5055 210.099 20.8667 197.12 25.3354 191.834C23.0497 185.984 18.7993 176.262 16.9887 179.571C14.4204 184.211 7.76233 208.006 11.5569 211.494C15.3514 214.982 9.1877 215.181 12.032 219.814C14.4461 223.738 28.0448 236.736 33.3482 240.358C33.9038 238.914 34.0785 237.352 33.8554 235.821C33.8554 235.821 21.6757 212.896 15.5055 210.099Z" fill="black"/>
<path d="M18.8635 166.97C18.8635 166.97 19.5056 176.57 21.7207 182.048" stroke="#7F7F7F" stroke-width="0.75" stroke-linecap="round" stroke-linejoin="round"/>
<path d="M14.2727 211.994C14.2727 211.994 10.7671 215.744 5.92603 215.238" stroke="#7F7F7F" stroke-width="0.75" stroke-linecap="round" stroke-linejoin="round"/>
<path d="M28.0449 228.935L28.4045 240.295" stroke="#7F7F7F" stroke-width="0.75" stroke-linecap="round" stroke-linejoin="round"/>
<path d="M84.1349 248.871C84.1349 248.871 92.0065 273.421 93.4832 285.562H29.5282C29.5282 285.562 28.9696 256.762 31.3965 247.565L84.1349 248.871Z" fill="#92E3A9" stroke="#263238" stroke-width="0.75" stroke-linecap="round" stroke-linejoin="round"/>
<path d="M57.239 279.04C58.6772 280.32 61.4766 285.536 61.4766 285.536" stroke="#263238" stroke-width="0.75" stroke-linecap="round" stroke-linejoin="round"/>
<path d="M43.7432 262.477C46.9807 267.43 50.6159 272.113 54.6131 276.48" stroke="#263238" stroke-width="0.75" stroke-linecap="round" stroke-linejoin="round"/>
<path d="M61.1299 101.242C61.1299 101.242 65.9967 96.8961 64.8731 94.1569C63.4092 90.5921 59.6339 95.8977 59.6339 95.8977C59.6339 95.8977 61.1299 90.4321 57.9324 89.0625C54.5103 87.6033 51.6596 94.0353 51.6596 94.0353C51.6596 94.0353 50.7735 88.5121 45.9196 89.6833C41.8105 90.6817 45.1748 95.2769 41.8105 96.7681C38.4461 98.2593 27.345 102.112 29.4637 109.568C29.4637 109.568 26.4718 103.725 25.3546 106.086C24.2374 108.448 28.0962 111.68 29.5922 112.051C29.5922 112.051 27.223 117.024 29.0914 118.394C30.9597 119.763 30.5873 114.79 30.5873 114.79C30.5873 114.79 31.8072 128.486 45.0528 135.667C58.2984 142.848 57.9324 119.027 57.9324 119.027L61.2583 108.339L61.1299 101.242Z" fill="#263238" stroke="#263238" stroke-width="0.75" stroke-linecap="round" stroke-linejoin="round"/>
<path d="M44.2631 100.25C38.6901 101.99 30.3049 104.09 33.9389 115.162" stroke="#7F7F7F" stroke-width="0.75" stroke-linecap="round" stroke-linejoin="round"/>
<path d="M46.671 91.9232C46.671 91.9232 48.7513 96.2432 46.5747 98.8096" stroke="#7F7F7F" stroke-width="0.75" stroke-linecap="round" stroke-linejoin="round"/>
<path d="M40.3145 121.997C40.6098 122.701 40.9565 123.43 41.3096 124.186" stroke="#7F7F7F" stroke-width="0.75" stroke-linecap="round" stroke-linejoin="round"/>
<path d="M55.1075 96.4097C53.9475 98.2528 52.2712 99.7168 50.2857 100.621C44.5072 103.386 35.4093 106.566 39.2424 119.059" stroke="#7F7F7F" stroke-width="0.75" stroke-linecap="round" stroke-linejoin="round"/>
<path d="M56.6419 91.4241C56.6253 92.274 56.4847 93.1169 56.2246 93.9265" stroke="#7F7F7F" stroke-width="0.75" stroke-linecap="round" stroke-linejoin="round"/>
<path d="M46.6132 106.586C43.6597 108.851 47.8973 111.853 49.663 115.655" stroke="#7F7F7F" stroke-width="0.75" stroke-linecap="round" stroke-linejoin="round"/>
<path d="M63.114 95.4049C63.114 95.4049 57.6309 102.861 49.6309 105.216" stroke="#7F7F7F" stroke-width="0.75" stroke-linecap="round" stroke-linejoin="round"/>
<path d="M30.0932 249.242C30.0932 249.242 29.7143 235.802 27.846 214.944C25.9776 194.086 15.5057 152.32 30.0932 148.589C44.6806 144.858 73.7529 142.515 83.5699 151.942C94.4206 162.381 86.1895 220.538 85.8171 230.605C85.4447 240.672 87.3131 252.224 87.3131 252.224C87.3131 252.224 48.6036 260.614 30.0932 249.242Z" fill="#263238" stroke="#263238" stroke-width="0.75" stroke-linecap="round" stroke-linejoin="round"/>
<path opacity="0.2" d="M85.817 230.605C85.9647 226.566 87.3772 214.797 88.321 201.472C87.3258 195.174 86.3949 189.312 85.6758 185.05C83.0176 168.998 57.5987 168.122 38.3307 170.24C28.9823 171.251 25.4896 180.326 24.366 189.402C25.6501 198.79 27.2231 208.038 27.8459 215.002C29.7143 235.878 30.0931 249.299 30.0931 249.299C48.6035 260.672 87.313 252.282 87.313 252.282C87.313 252.282 85.4446 240.672 85.817 230.605Z" fill="black"/>
<path d="M60.5071 142.995V138.771C60.5071 138.771 67.7495 139.891 68.7447 138.022C69.7398 136.154 68.1026 128.454 68.1026 128.454C68.1026 128.454 71.589 128.582 71.589 126.963C71.589 125.344 67.4798 118.515 67.4798 118.515C67.4798 118.515 67.9742 113.05 67.4798 111.309C66.9854 109.568 61.8682 99.7505 61.8682 99.7505C61.8682 99.7505 54.3883 103.846 54.6387 106.086C54.8891 108.326 57.0079 110.438 55.2808 112.301C53.5536 114.163 51.1652 119.194 51.91 121.587L50.7928 122.368C50.7928 122.368 50.1507 117.888 47.6724 117.146C45.1941 116.403 43.178 121.376 44.9308 124.826C46.6837 128.275 48.674 127.686 48.674 127.686C48.674 127.686 47.6724 133.651 45.0593 135.642L44.2695 141.85L60.5071 142.995Z" fill="white" stroke="#263238" stroke-width="0.75" stroke-linecap="round" stroke-linejoin="round"/>
<path d="M65.3097 118.637C65.7565 118.637 66.1187 117.969 66.1187 117.146C66.1187 116.322 65.7565 115.654 65.3097 115.654C64.8629 115.654 64.5007 116.322 64.5007 117.146C64.5007 117.969 64.8629 118.637 65.3097 118.637Z" fill="#263238"/>
<path d="M59.7625 127.36C59.7625 127.36 60.3467 128.973 65.0401 129.223" stroke="#263238" stroke-width="0.75" stroke-linecap="round" stroke-linejoin="round"/>
<path d="M65.3097 112.928C64.5667 112.844 63.8175 113.021 63.1916 113.429C62.5657 113.837 62.1022 114.45 61.8811 115.162" stroke="#263238" stroke-width="0.75" stroke-linecap="round" stroke-linejoin="round"/>
<path d="M39.313 148.87C39.313 148.87 34.3307 142.125 39.313 141.382C44.2954 140.64 64.7448 138.893 67.9872 141.382C71.2295 143.872 63.0048 143.123 62.504 147.347C62.0032 151.571 39.313 148.87 39.313 148.87Z" fill="#263238" stroke="#263238" stroke-width="0.75" stroke-linecap="round" stroke-linejoin="round"/>
<path d="M70.0866 118.4C70.0866 120.8 69.3868 122.739 68.52 122.739C67.6532 122.739 66.9534 120.819 66.9534 118.4C66.9534 115.981 67.6532 114.061 68.52 114.061C69.3868 114.061 70.0866 115.981 70.0866 118.4Z" stroke="#263238" stroke-width="0.75" stroke-linecap="round" stroke-linejoin="round"/>
<path d="M69.7399 115.654L52.5071 116.934C51.285 117.019 50.1158 117.464 49.1492 118.214" stroke="#263238" stroke-linecap="round" stroke-linejoin="round"/>
<path d="M121.733 132.154L125.804 123.117C125.804 123.117 128.18 113.318 130.061 111.187C131.942 109.056 134.998 105.203 135.968 106.272C136.674 107.04 135.801 109.664 134.247 111.68C132.565 113.869 133.932 115.923 134.549 116.8C135.165 117.677 138.831 119.475 141.695 119.846C144.558 120.218 150.266 116.608 152.231 117.875C154.196 119.142 150.189 120.538 150.189 120.538C150.189 120.538 153.278 120.128 153.926 121.856C154.305 122.88 151.133 122.861 149.586 123.014C148.038 123.168 144.899 123.654 144.899 123.654C144.899 123.654 150.536 124.371 150.465 125.907C150.395 127.443 146.234 126.003 143.075 126.125C143.075 126.125 147.608 127.29 147.358 128.768C147.107 130.246 144.713 128.691 140.937 128.038L132.167 126.931L129.4 137.133L121.733 132.154Z" fill="white" stroke="#263238" stroke-width="0.75" stroke-linecap="round" stroke-linejoin="round"/>
<path d="M147.897 121.05C146.91 121.619 145.819 121.986 144.688 122.13C143.557 122.274 142.408 122.192 141.31 121.888C141.31 121.888 141.682 123.098 141.31 123.61C140.937 124.122 140.982 125.146 140.026 125.798C139.547 126.141 139.048 126.453 138.53 126.733" stroke="#263238" stroke-width="0.75" stroke-linecap="round" stroke-linejoin="round"/>
<path d="M70.0867 146.291C70.0867 146.291 83.8908 146.349 89.1557 150.637C89.1557 150.637 89.1557 148.403 93.2969 150.637C93.2969 150.637 105.823 149.146 111.621 150.637C111.621 150.637 118.729 133.114 123.03 128.454C123.03 128.454 129.201 128.832 130.883 131.622C131.685 132.954 129.791 140.262 128.032 147.706C126.106 155.923 124.135 164.307 122.465 164.986C119.287 166.266 85.817 169.274 85.817 169.274L70.0867 161.069V146.291Z" fill="#263238" stroke="#263238" stroke-width="0.75" stroke-linecap="round" stroke-linejoin="round"/>
<path opacity="0.2" d="M131.056 132.339C130.89 132.204 130.698 132.104 130.491 132.045C125.727 130.765 123.377 157.466 119.692 160.615C116.006 163.763 96.0706 161.728 91.0498 160.685C87.3066 159.911 88.0963 165.914 88.7384 169.005C96.9503 168.243 119.865 166.055 122.466 164.986C124.135 164.301 126.087 155.917 128.032 147.706C129.586 141.139 131.236 134.682 131.056 132.339Z" fill="black"/>
<path d="M113.303 151.386C113.303 151.386 116.109 151.942 119.473 156.416" stroke="#7F7F7F" stroke-width="0.75" stroke-linecap="round" stroke-linejoin="round"/>
<path d="M90.6772 153.901C91.652 158.164 91.652 162.591 90.6772 166.854" stroke="#7F7F7F" stroke-width="0.75" stroke-linecap="round" stroke-linejoin="round"/>
<path d="M78.9021 148.87C78.9021 148.87 87.8909 153.594 88.5329 166.854" stroke="#7F7F7F" stroke-width="0.75" stroke-linecap="round" stroke-linejoin="round"/>
<path d="M79.467 234.88C80.0814 234.101 80.5829 233.239 80.9566 232.32" stroke="#7F7F7F" stroke-width="0.75" stroke-linecap="round" stroke-linejoin="round"/>
<path d="M36.5713 242.035C36.5713 242.035 66.2214 245.926 77.4766 236.87" stroke="#7F7F7F" stroke-width="0.75" stroke-linecap="round" stroke-linejoin="round"/>
<path d="M171.473 109.798L170.953 106.637C170.908 106.452 170.901 106.259 170.934 106.072C170.967 105.884 171.038 105.705 171.143 105.546C171.249 105.387 171.386 105.252 171.546 105.148C171.706 105.045 171.886 104.975 172.075 104.944C172.264 104.913 172.457 104.921 172.642 104.968C172.827 105.015 173 105.1 173.151 105.217C173.302 105.333 173.427 105.48 173.519 105.647C173.61 105.815 173.666 105.999 173.682 106.189L173.785 106.829L172.912 106.97L172.796 106.291C172.732 105.907 172.52 105.779 172.244 105.824C171.968 105.869 171.807 106.054 171.871 106.464L172.411 109.747C172.475 110.138 172.687 110.259 172.963 110.208C173.239 110.157 173.406 109.984 173.342 109.568L173.194 108.672L174.067 108.531L174.209 109.357C174.243 109.538 174.241 109.724 174.203 109.904C174.164 110.085 174.09 110.255 173.985 110.407C173.879 110.558 173.744 110.687 173.588 110.785C173.431 110.884 173.257 110.95 173.074 110.98C172.892 111.011 172.705 111.004 172.526 110.962C172.346 110.919 172.176 110.841 172.027 110.732C171.878 110.623 171.752 110.485 171.657 110.327C171.562 110.169 171.499 109.994 171.473 109.811V109.798Z" fill="#263238"/>
<path d="M174.613 109.248L174.562 108.909L175.435 108.762L175.506 109.171C175.576 109.587 175.782 109.709 176.077 109.658C176.372 109.606 176.533 109.434 176.462 109.018C176.392 108.602 176.148 108.25 175.448 107.821C174.562 107.27 174.228 106.829 174.119 106.157C174.055 105.97 174.036 105.771 174.062 105.576C174.088 105.38 174.159 105.193 174.27 105.03C174.381 104.866 174.528 104.73 174.7 104.633C174.872 104.535 175.064 104.478 175.262 104.467C176.161 104.32 176.693 104.787 176.854 105.747L176.892 105.99L176.019 106.131L175.968 105.83C175.897 105.408 175.698 105.28 175.409 105.325C175.12 105.37 174.966 105.562 175.037 105.965C175.108 106.368 175.352 106.675 176.045 107.104C176.393 107.254 176.699 107.487 176.935 107.783C177.171 108.079 177.331 108.428 177.4 108.8C177.46 108.99 177.477 109.191 177.449 109.389C177.421 109.586 177.349 109.775 177.238 109.94C177.127 110.106 176.98 110.245 176.808 110.347C176.636 110.449 176.443 110.51 176.244 110.528C175.313 110.65 174.774 110.189 174.613 109.248Z" fill="#263238"/>
<path d="M177.753 108.73L177.695 108.39L178.574 108.25L178.639 108.653C178.709 109.075 178.921 109.19 179.217 109.146C179.512 109.101 179.672 108.915 179.602 108.506C179.531 108.096 179.281 107.738 178.587 107.309C177.701 106.752 177.367 106.317 177.258 105.645C177.195 105.459 177.175 105.26 177.201 105.065C177.227 104.87 177.298 104.683 177.407 104.52C177.517 104.357 177.664 104.221 177.835 104.123C178.006 104.025 178.198 103.967 178.395 103.955C179.3 103.808 179.833 104.269 179.987 105.235L180.032 105.478L179.152 105.626L179.101 105.325C179.037 104.902 178.838 104.768 178.542 104.819C178.247 104.87 178.106 105.056 178.17 105.459C178.234 105.862 178.491 106.163 179.184 106.592C179.529 106.748 179.831 106.986 180.063 107.285C180.294 107.584 180.449 107.935 180.514 108.307C180.576 108.497 180.595 108.698 180.569 108.896C180.542 109.094 180.471 109.283 180.36 109.45C180.249 109.616 180.102 109.755 179.93 109.857C179.757 109.958 179.564 110.019 179.364 110.035C178.453 110.131 177.907 109.67 177.753 108.73Z" fill="#263238"/>
<path d="M72.7768 182.24C72.7768 182.24 57.9389 186.509 58.5296 197.51C59.1202 208.512 61.971 207.885 55.6788 211.514C49.3867 215.142 55.3257 222.01 53.5408 225.088C51.7559 228.166 40.4814 236.685 45.3546 241.088C50.2278 245.491 74.6772 236.71 83.2358 241.088C91.7944 245.466 98.536 236.179 100.802 233.773C103.069 231.366 96.4172 227.955 96.6548 223.104C96.8923 218.253 101.149 191.443 95.7045 187.866C90.2599 184.288 77.4959 180.282 72.7768 182.24Z" fill="#263238" stroke="#263238" stroke-width="0.75" stroke-linecap="round" stroke-linejoin="round"/>
<path d="M125.592 200L128.314 190.144C128.314 190.144 129.38 183.398 130.241 182.067C131.188 180.885 132.265 179.812 133.451 178.867C134.294 177.689 135.244 176.59 136.289 175.584C137.457 174.605 144.314 171.053 144.847 171.322C145.38 171.59 146.228 173.184 141.778 175.674C143.277 175.593 144.776 175.811 146.189 176.314C148.147 177.107 149.483 177.331 148.635 178.176C147.788 179.021 147.075 179.418 143.916 178.573C142.587 178.726 141.247 178.771 139.91 178.707L138.928 179.859C139.353 179.675 139.83 179.65 140.273 179.789C140.715 179.928 141.092 180.221 141.335 180.614C142.221 182.035 143.261 183.814 142.799 184.832C142.799 184.832 146.228 183.059 147.165 184.518C148.102 185.978 145.207 187.315 144.051 188.205C142.895 189.094 140.083 191.488 140.083 191.488C140.083 191.488 138.08 195.968 133.9 197.613C133.376 198.735 133.219 199.993 133.451 201.21L125.592 200Z" fill="white" stroke="#263238" stroke-width="0.75" stroke-linecap="round" stroke-linejoin="round"/>
<path d="M139.621 176.877L138.151 178.074L136.507 180.915L135.39 184.64" stroke="#263238" stroke-width="0.75" stroke-linecap="round" stroke-linejoin="round"/>
<path d="M134.459 184.64C134.459 184.64 136.79 187.437 138.453 187.84C139.181 187.537 139.885 187.18 140.559 186.771C140.854 186.515 141.297 186.016 142.202 185.293" stroke="#263238" stroke-width="0.75" stroke-linecap="round" stroke-linejoin="round"/>
<path d="M137.04 184.422L137.252 183.667C137.946 183.815 138.664 183.815 139.358 183.667L139.891 184.422C138.946 184.285 137.985 184.285 137.04 184.422Z" stroke="#263238" stroke-width="0.75" stroke-linecap="round" stroke-linejoin="round"/>
<path d="M139.403 181.267C139.131 181.869 139.023 182.531 139.088 183.187" stroke="#263238" stroke-width="0.75" stroke-linecap="round" stroke-linejoin="round"/>
<path d="M140.802 183.68C140.254 184.149 139.827 184.743 139.557 185.411C139.288 186.08 139.184 186.803 139.255 187.52" stroke="#263238" stroke-width="0.75" stroke-linecap="round" stroke-linejoin="round"/>
<path d="M138.022 180.557L137.04 181.626V182.822" stroke="#263238" stroke-width="0.75" stroke-linecap="round" stroke-linejoin="round"/>
<path d="M91.5183 230.765C91.5183 230.765 113.913 231.334 117.13 233.696C117.13 233.696 115.12 230.496 118.735 231.52C118.735 231.52 118.985 204.115 123.871 203.744L125.489 197.51C125.517 197.402 125.57 197.301 125.644 197.216C125.718 197.131 125.811 197.065 125.915 197.023C126.02 196.981 126.132 196.963 126.245 196.972C126.357 196.981 126.466 197.017 126.562 197.075C127.904 197.901 130.684 199.392 133.271 199.424C133.459 199.427 133.638 199.505 133.769 199.639C133.9 199.773 133.973 199.954 133.971 200.141V205.485C133.971 205.485 136.462 206.125 136.334 209.709C136.205 213.293 133.932 245.638 129.817 249.139C125.701 252.64 96.7574 250.88 96.7574 250.88C96.7574 250.88 89.6499 244.058 91.5183 230.765Z" fill="#92E3A9" stroke="#263238" stroke-width="0.75" stroke-linecap="round" stroke-linejoin="round"/>
<path opacity="0.2" d="M135.39 221.677C132.648 241.856 127.274 239.482 125.592 241.082C123.91 242.682 127.095 246.758 116.231 247.782C105.367 248.806 98.491 237.971 98.491 237.971L92.9373 244.627C93.7933 246.949 95.1027 249.079 96.7896 250.893C96.7896 250.893 125.682 252.634 129.823 249.139C132.494 246.867 134.388 232.499 135.422 221.67L135.39 221.677Z" fill="black"/>
<path d="M119.692 236.729C119.692 236.729 121.316 237.971 122.311 241.849" stroke="#263238" stroke-width="0.75" stroke-linecap="round" stroke-linejoin="round"/>
<path d="M121.001 233.747C123.067 234.737 124.881 236.181 126.305 237.971" stroke="#263238" stroke-width="0.75" stroke-linecap="round" stroke-linejoin="round"/>
<path d="M125.592 204.615C125.592 204.615 127.711 206.106 131.948 206.605" stroke="#263238" stroke-width="0.75" stroke-linecap="round" stroke-linejoin="round"/>
<path d="M50.9148 285.562C50.9148 285.562 33.5793 249.114 46.8762 237.517C60.1732 225.92 88.1925 228.992 92.9437 230.413C97.6949 231.834 102.44 245.562 102.677 252.903C102.915 260.243 107.583 260.135 100.937 285.543L50.9148 285.562Z" fill="#92E3A9" stroke="#263238" stroke-width="0.75" stroke-linecap="round" stroke-linejoin="round"/>
<path opacity="0.2" d="M50.9147 285.562H100.937C101.292 284.205 101.616 282.925 101.907 281.722C99.1587 280.499 96.6546 279.053 92.9179 278.739C86.5359 278.208 78.4588 283.712 67.0623 278.739C55.6659 273.766 66.7028 255.13 66.1121 251.904C65.5214 248.678 56.5519 258.47 56.5519 258.47L44.6033 268.518C46.278 274.348 48.3877 280.045 50.9147 285.562Z" fill="black"/>
<path d="M68.032 262.01L78.5938 258.56C78.5938 258.56 82.9854 251.59 85.2455 249.818C87.5055 248.045 88.9244 247.45 91.1781 248.538L94.979 248.013C94.979 248.013 96.5842 245.978 98.4204 246.413C100.257 246.848 106.973 248.896 106.26 250.317C105.547 251.738 99.8394 249.133 99.0175 249.843C99.0175 249.843 100.886 253.184 100.886 255.226C100.886 257.267 101.419 260.378 100.244 260.378C99.0689 260.378 98.1058 259.098 98.1957 257.421C98.1957 257.421 97.8426 261.088 96.6805 260.909C95.5183 260.73 94.7222 259.75 94.902 258.246C94.902 258.246 92.231 266.502 85.4638 266.413L73.1941 271.36C73.1941 271.36 70.7029 270.771 68.032 262.01Z" fill="white" stroke="#263238" stroke-width="0.75" stroke-linecap="round" stroke-linejoin="round"/>
<path d="M87.8843 258.227C87.8843 258.227 89.4894 255.027 89.0464 253.523L91.3578 252.634C91.3578 252.634 92.3401 253.965 93.0528 253.613L92.6933 255.43C92.6933 255.43 90.9148 257.606 91.8907 258.848C92.8666 260.09 94.2984 257.248 95.101 256.448C95.9035 255.648 96.0769 252.128 95.4541 251.008C94.8313 249.888 92.5328 250.003 91.8586 249.261" stroke="#263238" stroke-width="0.75" stroke-linecap="round" stroke-linejoin="round"/>
<path d="M95.2166 248.518C95.2166 248.518 97.239 248.282 97.8297 249.261C98.5421 250.647 98.9078 252.184 98.8955 253.741C98.7699 254.735 98.5921 255.722 98.3626 256.698" stroke="#263238" stroke-width="0.75" stroke-linecap="round" stroke-linejoin="round"/>
<path d="M95.2166 257.402L95.5761 255.43" stroke="#263238" stroke-width="0.75" stroke-linecap="round" stroke-linejoin="round"/>
<path d="M97.0657 248.698C97.0657 248.698 98.215 248.192 98.9918 249.824" stroke="#263238" stroke-width="0.75" stroke-linecap="round" stroke-linejoin="round"/>
<path d="M92.8731 254.502L91.8586 254.912L92.3659 255.885L92.6933 255.43L92.8731 254.502Z" stroke="#263238" stroke-width="0.75" stroke-linecap="round" stroke-linejoin="round"/>
<path d="M81.804 263.315C81.804 263.315 82.2791 264.499 84.4107 265.683" stroke="#263238" stroke-width="0.75" stroke-linecap="round" stroke-linejoin="round"/>
<path d="M72.8988 216.448L69.4509 226.509C69.4509 226.509 76.8153 234.317 83.223 234.912L85.8362 237.971L88.6869 234.554L87.9742 230.176L86.8249 228.326L85.8362 228.006L87.8586 222.483L81.4124 213.76H75.1524L72.8988 216.448Z" fill="white"/>
<mask id="mask8_260_1309" style="mask-type:luminance" maskUnits="userSpaceOnUse" x="69" y="213" width="20" height="25">
<path d="M72.8988 216.448L69.4509 226.509C69.4509 226.509 76.8153 234.317 83.223 234.912L85.8362 237.971L88.6869 234.554L87.9742 230.176L86.8249 228.326L85.8362 228.006L87.8586 222.483L81.4124 213.76H75.1524L72.8988 216.448Z" fill="white"/>
</mask>
<g mask="url(#mask8_260_1309)">
<path d="M87.8586 222.483L81.4124 213.76H75.1524L74.4204 214.643C74.8506 216.64 75.7623 220.045 77.2904 222.042C78.9148 224.173 83.4862 226.605 85.926 227.802L87.8586 222.483Z" fill="#263238" stroke="#263238" stroke-width="0.75" stroke-linecap="round" stroke-linejoin="round"/>
</g>
<path d="M72.8988 216.448L69.4509 226.509C69.4509 226.509 76.8153 234.317 83.223 234.912L85.8362 237.971L88.6869 234.554L87.9742 230.176L86.8249 228.326L85.8362 228.006L87.8586 222.483L81.4124 213.76H75.1524L72.8988 216.448Z" stroke="#263238" stroke-width="0.75" stroke-linecap="round" stroke-linejoin="round"/>
<path d="M74.6707 211.514C74.6707 211.514 75.8585 218.816 79.0623 221.184C82.2662 223.552 93.7846 227.91 95.9227 225.85C98.0607 223.789 100.199 217.158 100.674 213.728C101.149 210.298 99.9612 204.64 100.199 201.197C100.436 197.754 100.674 191.949 95.9227 190.176C91.1715 188.403 73.836 196.966 73.836 196.966L72.7766 203.52L74.6707 211.514Z" fill="white" stroke="#263238" stroke-width="0.75" stroke-linecap="round" stroke-linejoin="round"/>
<path d="M97.0592 201.197C97.0592 201.197 96.3465 204.083 97.0592 205.146C97.5408 205.869 98.7992 207.603 99.5632 208.653C99.6419 208.762 99.698 208.885 99.7283 209.016C99.7586 209.146 99.7625 209.282 99.7398 209.414C99.7171 209.546 99.6682 209.673 99.596 209.786C99.5238 209.899 99.4297 209.997 99.3193 210.074C98.4075 210.714 97.0464 211.757 96.751 212.422C96.7015 212.717 96.7015 213.017 96.751 213.312" stroke="#263238" stroke-width="0.75" stroke-linecap="round" stroke-linejoin="round"/>
<path d="M96.8087 215.104C96.8087 215.104 93.5985 217.664 90.3882 214.394" stroke="#263238" stroke-width="0.75" stroke-linecap="round" stroke-linejoin="round"/>
<path d="M87.8586 202.304C87.8586 202.304 89.2648 199.2 94.2278 200.794" stroke="#263238" stroke-width="0.75" stroke-linecap="round" stroke-linejoin="round"/>
<path d="M97.252 200.32C97.5815 199.994 98.0269 199.811 98.4911 199.811C98.9554 199.811 99.4008 199.994 99.7303 200.32" stroke="#263238" stroke-width="0.75" stroke-linecap="round" stroke-linejoin="round"/>
<path d="M92.9115 203.469C93.1105 204.205 92.9757 204.877 92.6097 204.979C92.2437 205.082 91.7814 204.557 91.5888 203.821C91.3962 203.085 91.5246 202.413 91.8906 202.317C92.2566 202.221 92.7124 202.733 92.9115 203.469Z" fill="#263238"/>
<path d="M99.6659 202.72C99.8072 203.392 99.666 204 99.3192 204.058C98.9725 204.115 98.6001 203.648 98.4589 202.976C98.3176 202.304 98.4589 201.696 98.7992 201.632C99.1395 201.568 99.5183 202.048 99.6659 202.72Z" fill="#263238"/>
<path d="M91.2036 181.69C91.2036 181.69 97.2518 178.234 106.343 186.253C114.562 193.498 104.52 189.344 104.52 189.344C104.52 189.344 108.693 197.12 104.244 198.72C99.7943 200.32 102.221 195.616 92.2502 193.37C92.2502 193.37 96.6996 196.966 93.6499 199.066C89.7333 201.76 87.1458 197.146 84.0576 198.221C84.0576 198.221 82.3946 207.334 79.0688 208.877C79.0688 208.877 75.8585 221.088 71.576 220.307C67.2935 219.526 72.5391 217.869 70.1635 210.413C67.7879 202.957 62.6836 195.917 66.6065 187.84C70.5295 179.763 84.584 178.886 91.2036 181.69Z" fill="#263238" stroke="#263238" stroke-width="0.75" stroke-linecap="round" stroke-linejoin="round"/>
<path d="M53.3032 235.52C49.9517 235.571 46.8826 236.8 45.4701 238.963C40.1796 246.829 33.5985 261.446 29.3225 271.149C25.0464 280.851 27.1587 286.72 29.3225 287.456C31.4862 288.192 39.056 290.534 53.7783 283.437C68.5006 276.339 67.0817 274.912 67.0817 274.912L75.5247 271.027C75.6011 270.993 75.667 270.939 75.7156 270.871C75.7643 270.803 75.7941 270.723 75.8019 270.64C75.8097 270.557 75.7954 270.473 75.7602 270.397C75.725 270.321 75.6704 270.256 75.6018 270.208C74.2599 269.248 71.5504 266.534 71.3642 260.224C71.3615 260.149 71.341 260.075 71.3044 260.009C71.2679 259.943 71.2163 259.887 71.1537 259.844C71.0912 259.802 71.0196 259.775 70.9446 259.765C70.8696 259.756 70.7934 259.764 70.7221 259.789L62.8184 262.989C62.8184 262.989 61.6306 261.709 54.7414 264.269C54.7414 264.269 61.6306 259.296 64.7189 255.507C66.17 253.728 66.6451 250.387 66.125 246.97" fill="#92E3A9"/>
<path d="M53.3032 235.52C49.9517 235.571 46.8826 236.8 45.4701 238.963C40.1796 246.829 33.5985 261.446 29.3225 271.149C25.0464 280.851 27.1587 286.72 29.3225 287.456C31.4862 288.192 39.056 290.534 53.7783 283.437C68.5006 276.339 67.0817 274.912 67.0817 274.912L75.5247 271.027C75.6011 270.993 75.667 270.939 75.7156 270.871C75.7643 270.803 75.7941 270.723 75.8019 270.64C75.8097 270.557 75.7954 270.473 75.7602 270.397C75.725 270.321 75.6704 270.256 75.6018 270.208C74.2599 269.248 71.5504 266.534 71.3642 260.224C71.3615 260.149 71.341 260.075 71.3044 260.009C71.2679 259.943 71.2163 259.887 71.1537 259.844C71.0912 259.802 71.0196 259.775 70.9446 259.765C70.8696 259.756 70.7934 259.764 70.7221 259.789L62.8184 262.989C62.8184 262.989 61.6306 261.709 54.7414 264.269C54.7414 264.269 61.6306 259.296 64.7189 255.507C66.17 253.728 66.6451 250.387 66.125 246.97" stroke="#263238" stroke-width="0.75" stroke-linecap="round" stroke-linejoin="round"/>
<path d="M40.3657 269.114C42.645 267.232 52.2373 266.272 52.3593 264.851C52.4813 263.431 44.2823 266.867 44.4042 264.851" stroke="#263238" stroke-width="0.75" stroke-linecap="round" stroke-linejoin="round"/>
<path d="M59.6018 250.298C59.6018 250.298 61.9774 254.074 61.971 256.211C61.9646 258.349 64.8217 252.781 64.8217 250.298" stroke="#263238" stroke-width="0.75" stroke-linecap="round" stroke-linejoin="round"/>
<path d="M63.2808 264.499C63.2808 264.499 63.0432 267.341 65.6564 272.07" stroke="#263238" stroke-width="0.75" stroke-linecap="round" stroke-linejoin="round"/>
<path d="M61.8296 230.285C61.8296 230.285 64.2694 223.091 67.1201 224.147C69.9708 225.203 83.8585 231.187 85.8167 237.971C85.8167 237.971 82.966 234.227 80.4748 237.971C77.9837 241.715 75.6145 238.387 61.8296 230.285Z" fill="#92E3A9" stroke="#263238" stroke-width="0.75" stroke-linecap="round" stroke-linejoin="round"/>
<path d="M86.8249 228.326C87.6005 231.56 87.2519 234.961 85.8362 237.971C85.8362 237.971 87.9742 235.238 90.4654 237.101C92.9566 238.963 90.4654 231.181 89.3097 229.709C88.6318 229.11 87.8888 228.588 87.0946 228.154C87.0674 228.13 87.0331 228.116 86.9971 228.113C86.961 228.111 86.9251 228.12 86.8947 228.139C86.8643 228.159 86.8411 228.187 86.8285 228.221C86.8159 228.255 86.8147 228.292 86.8249 228.326Z" fill="#92E3A9" stroke="#263238" stroke-width="0.75" stroke-linecap="round" stroke-linejoin="round"/>
<path d="M85.8362 228.006C85.8362 228.006 85.0979 230.362 85.8362 231.77" stroke="#263238" stroke-width="0.75" stroke-linecap="round" stroke-linejoin="round"/>
<path d="M76.6483 286.157H105.425V288.762H76.8794C76.5934 288.762 76.319 288.648 76.1167 288.447C75.9144 288.245 75.8008 287.972 75.8008 287.686V287.002C75.8008 286.777 75.8901 286.563 76.049 286.404C76.208 286.246 76.4235 286.157 76.6483 286.157Z" fill="#858585" stroke="#263238" stroke-linecap="round" stroke-linejoin="round"/>
<path d="M119.294 243.072H115.679C115.125 243.075 114.588 243.256 114.146 243.588C113.704 243.92 113.381 244.386 113.226 244.915L101.393 285.498C101.285 285.877 101.267 286.276 101.339 286.663C101.412 287.051 101.573 287.417 101.81 287.732C102.047 288.047 102.355 288.304 102.708 288.481C103.061 288.659 103.45 288.752 103.846 288.755H106.985L119.294 243.072Z" fill="#263238" stroke="#263238" stroke-width="0.75" stroke-linecap="round" stroke-linejoin="round"/>
<path d="M165.406 288.755H105.098C104.702 288.753 104.312 288.66 103.958 288.483C103.604 288.306 103.296 288.05 103.058 287.734C102.819 287.419 102.658 287.053 102.585 286.665C102.512 286.277 102.531 285.877 102.639 285.498L114.478 244.915C114.633 244.385 114.957 243.918 115.4 243.586C115.843 243.254 116.383 243.073 116.937 243.072H177.245C177.642 243.075 178.032 243.168 178.386 243.346C178.739 243.524 179.047 243.781 179.284 244.097C179.522 244.413 179.683 244.78 179.755 245.168C179.826 245.557 179.807 245.956 179.698 246.336L167.865 286.918C167.709 287.448 167.385 287.913 166.941 288.244C166.498 288.575 165.96 288.754 165.406 288.755Z" fill="#858585" stroke="#263238" stroke-linecap="round" stroke-linejoin="round"/>
<path d="M74.4204 214.611C74.4204 214.611 69.5729 222.157 72.4236 228.954C75.2743 235.75 72.7768 239.277 69.4509 236.73C66.1251 234.182 64.5841 231.386 49.6243 233.747L59.6018 224.038L66.3691 214.995L72.7061 212.026L74.4204 214.611Z" fill="#263238" stroke="#263238" stroke-width="0.75" stroke-linecap="round" stroke-linejoin="round"/>
<path d="M103.916 193.37C104.322 194.055 104.529 194.839 104.513 195.635" stroke="#7F7F7F" stroke-width="0.75" stroke-linecap="round" stroke-linejoin="round"/>
<path d="M84.4106 185.6C93.3994 185.453 99.0559 188.16 102.003 190.963" stroke="#7F7F7F" stroke-width="0.75" stroke-linecap="round" stroke-linejoin="round"/>
<path d="M59.178 224.211C59.633 222.545 59.7767 220.809 59.6017 219.091C58.8891 211.104 65.2968 213.817 66.7221 203.673C68.0062 194.489 69.5472 187.322 80.6098 185.862" stroke="#7F7F7F" stroke-width="0.75" stroke-linecap="round" stroke-linejoin="round"/>
<path d="M55.146 229.888C56.1297 229.273 56.9738 228.46 57.6243 227.501" stroke="#7F7F7F" stroke-width="0.75" stroke-linecap="round" stroke-linejoin="round"/>
<path d="M67.8586 229.542C68.1356 230.309 68.4704 231.054 68.8602 231.77" stroke="#7F7F7F" stroke-width="0.75" stroke-linecap="round" stroke-linejoin="round"/>
<path d="M75.788 192.147C71.4156 195.987 75.2744 203.507 73.2198 208.147C71.2936 212.448 66.1572 218.739 67.0817 226.246" stroke="#7F7F7F" stroke-width="0.75" stroke-linecap="round" stroke-linejoin="round"/>
<path d="M92.2502 196.435C92.2502 196.435 86.2213 187.731 78.2085 190.752" stroke="#7F7F7F" stroke-width="0.75" stroke-linecap="round" stroke-linejoin="round"/>
<path d="M221.303 172.531H145.849C144.282 172.531 143.011 173.798 143.011 175.36V181.312C143.011 182.874 144.282 184.141 145.849 184.141H221.303C222.87 184.141 224.141 182.874 224.141 181.312V175.36C224.141 173.798 222.87 172.531 221.303 172.531Z" fill="white"/>
<mask id="mask9_260_1309" style="mask-type:luminance" maskUnits="userSpaceOnUse" x="143" y="172" width="82" height="13">
<path d="M221.303 172.531H145.849C144.282 172.531 143.011 173.798 143.011 175.36V181.312C143.011 182.874 144.282 184.141 145.849 184.141H221.303C222.87 184.141 224.141 182.874 224.141 181.312V175.36C224.141 173.798 222.87 172.531 221.303 172.531Z" fill="white"/>
</mask>
<g mask="url(#mask9_260_1309)">
<path opacity="0.3" d="M221.303 172.531H145.849C144.282 172.531 143.011 173.798 143.011 175.36V181.312C143.011 182.874 144.282 184.141 145.849 184.141H221.303C222.87 184.141 224.141 182.874 224.141 181.312V175.36C224.141 173.798 222.87 172.531 221.303 172.531Z" fill="black"/>
</g>
<path d="M221.303 172.531H145.849C144.282 172.531 143.011 173.798 143.011 175.36V181.312C143.011 182.874 144.282 184.141 145.849 184.141H221.303C222.87 184.141 224.141 182.874 224.141 181.312V175.36C224.141 173.798 222.87 172.531 221.303 172.531Z" stroke="#263238" stroke-width="0.75" stroke-linecap="round" stroke-linejoin="round"/>
<path d="M177.9 175.085H179.287C180.225 175.085 180.687 175.603 180.687 176.557V177.146C180.687 178.099 180.225 178.624 179.287 178.624H178.838V181.05H177.9V175.085ZM179.287 177.773C179.583 177.773 179.743 177.632 179.743 177.21V176.499C179.743 176.077 179.583 175.936 179.287 175.936H178.838V177.773H179.287Z" fill="#263238"/>
<path d="M181.2 175.085H182.138V177.51H183.178V175.085H184.122V181.05H183.178V178.368H182.17V181.05H181.233L181.2 175.085Z" fill="#263238"/>
<path d="M184.79 175.085H186.176C187.114 175.085 187.576 175.603 187.576 176.557V177.146C187.576 178.099 187.114 178.624 186.176 178.624H185.746V181.05H184.802L184.79 175.085ZM186.176 177.773C186.472 177.773 186.639 177.632 186.639 177.21V176.499C186.639 176.077 186.472 175.936 186.176 175.936H185.746V177.773H186.176Z" fill="#263238"/>
</g>
<defs>
<clipPath id="clip0_260_1309">
<rect width="385.618" height="320" fill="white"/>
</clipPath>
</defs>
</svg>
