<svg width="960" height="40" viewBox="0 0 960 40" fill="none" xmlns="http://www.w3.org/2000/svg">
<path fill-rule="evenodd" clip-rule="evenodd" d="M40 40L60 20L80 3.49691e-06H120L100 20L80 40L40 40ZM160 3.49691e-06L140 20L120 40H160L180 20L200 3.49691e-06H160ZM240 3.49691e-06L220 20L200 40H240L260 20L280 3.49691e-06H240ZM320 3.49691e-06L300 20L280 40H320L340 20L360 3.49691e-06H320ZM400 3.49691e-06L380 20L360 40H400L420 20L440 3.49691e-06H400ZM480 3.49691e-06L460 20L440 40H480L500 20L520 3.49691e-06H480ZM560 3.49691e-06L540 20L520 40H560L580 20L600 3.49691e-06H560ZM640 3.49691e-06L620 20L600 40H640L660 20L680 3.49691e-06H640ZM720 3.49691e-06L700 20L680 40H720L740 20L760 3.49691e-06H720ZM800 3.49691e-06L780 20L760 40H800L820 20L840 3.49691e-06H800ZM880 3.49691e-06L860 20L840 40H880L900 20L920 3.49691e-06H880ZM960 3.49691e-06L940 20L920 40H960V3.49691e-06ZM40 0L39.0641 3.49691e-06H0V40L20 20L40 0Z" fill="white"/>
</svg>
